<?xml version="1.0" encoding="UTF-8" standalone="no"?>
<!-- Created with Inkscape (http://www.inkscape.org/) -->

<svg
   width="101.71031mm"
   height="113.37825mm"
   viewBox="0 0 101.71031 113.37825"
   version="1.1"
   id="svg1"
   xml:space="preserve"
   inkscape:version="1.3 (0e150ed6c4, 2023-07-21)"
   sodipodi:docname="EMPRESA.svg"
   inkscape:export-filename="EMPRESA.png"
   inkscape:export-xdpi="96"
   inkscape:export-ydpi="96"
   xmlns:inkscape="http://www.inkscape.org/namespaces/inkscape"
   xmlns:sodipodi="http://sodipodi.sourceforge.net/DTD/sodipodi-0.dtd"
   xmlns="http://www.w3.org/2000/svg"
   xmlns:svg="http://www.w3.org/2000/svg"><sodipodi:namedview
     id="namedview1"
     pagecolor="#ffffff"
     bordercolor="#000000"
     borderopacity="0.25"
     inkscape:showpageshadow="2"
     inkscape:pageopacity="0.0"
     inkscape:pagecheckerboard="0"
     inkscape:deskcolor="#d1d1d1"
     inkscape:document-units="mm"
     inkscape:zoom="1.0602152"
     inkscape:cx="345.21293"
     inkscape:cy="622.98673"
     inkscape:window-width="1920"
     inkscape:window-height="1009"
     inkscape:window-x="-8"
     inkscape:window-y="-8"
     inkscape:window-maximized="1"
     inkscape:current-layer="layer1" /><defs
     id="defs1" /><g
     inkscape:label="Capa 1"
     inkscape:groupmode="layer"
     id="layer1"
     transform="translate(-51.6154,-71.397924)"><path
       id="rect1"
       style="opacity:0.986;fill:#ffffff;fill-opacity:1;stroke-width:3.0135"
       d="m 71.940435,178.52165 h 66.119125 c 1.7325,0 3.12726,1.39476 3.12726,3.12726 0,1.7325 -1.39476,3.12726 -3.12726,3.12726 H 71.940435 c -1.7325,0 -3.127256,-1.39476 -3.127256,-3.12726 0,-1.7325 1.394756,-3.12726 3.127256,-3.12726 z" /><g
       id="g3"
       transform="translate(-2.0992261e-6,0.18991405)"
       style="fill:#ffffff;fill-opacity:1"><rect
         style="opacity:0.986;fill:#ffffff;fill-opacity:1;stroke-width:3.0135"
         id="rect2"
         width="6.2545094"
         height="51.823116"
         x="101.87274"
         y="121.82251"
         ry="3.1272564" /><path
         id="rect3"
         style="opacity:1;fill:#ffffff;fill-opacity:1;stroke-width:3.41699"
         d="m 100.34199,103.7176 c 0.67297,2.97793 -0.890366,10.36304 1.33031,10.90647 1.67734,0.41047 1.35052,-2.26863 1.43429,-5.05126 0.0852,-2.8294 -0.13916,-5.7121 0.25071,-6.29747 1.44531,-2.17007 3.51137,-0.23712 3.51137,-0.23712 0.45914,-0.10334 -0.52539,11.34753 0.61845,11.48318 2.35904,0.27976 1.81371,-0.0784 1.90719,-5.28685 0.0506,-2.81852 0.20031,-5.70649 0.20031,-5.70649 0.17985,-1.65911 3.71383,-1.51143 3.69588,0.22098 l -0.15797,15.24992 c -0.0302,2.91739 -5.01855,7.15266 -5.01855,7.15266 l -5.76408,-0.008 c -1.73251,-0.002 -5.570211,-4.90708 -5.577272,-6.63956 l -0.06318,-15.50264 c -0.0071,-1.73249 3.152499,-2.40906 3.632702,-0.28416 z"
         sodipodi:nodetypes="sssssssssscsssss" /></g><path
       id="path4"
       style="opacity:1;fill:#af0000;fill-opacity:1;stroke:none;stroke-width:2.52478;stroke-opacity:1"
       d="m 139.28691,161.86289 c -0.38136,1.99732 -1.47253,4.05479 -2.32757,5.66763 -0.85504,1.61283 -1.91067,2.99939 -3.09442,4.09161 -1.18374,1.09222 -2.48923,1.91059 -3.86306,2.32557 -1.64823,0.49787 -2.74699,-0.24901 -4.19681,-0.192 -1.62141,0.0638 -2.25405,0.53629 -3.77768,0.27345 -2.30851,-0.39825 -4.39507,-2.58254 -5.47179,-3.73602 -0.97312,-1.0425 -2.82812,-4.30202 -3.43688,-5.56813 -0.60877,-1.26612 -1.01074,-6.67035 -0.38685,-8.21754 0.61362,-1.52172 1.61701,-3.76129 2.45837,-4.48658 0.84135,-0.72529 2.86203,-1.96395 3.95049,-2.17015 1.08846,-0.2062 2.60831,-0.12901 3.87861,0.3437 1.60449,0.59706 1.28822,1.62002 2.929,1.62002 1.64078,0 2.78893,-1.71886 4.492,-1.82883 1.64051,-0.10593 2.33828,-0.3106 4.73128,0.91658 1.32679,0.6804 3.23701,3.29349 3.85982,4.76606 0.62282,1.47256 0.77489,3.47436 0.25549,6.19463 z"
       sodipodi:nodetypes="sssssssssssssssss" /><path
       id="path4-5"
       style="fill:#ff4900;fill-opacity:1;stroke-width:1.66576"
       d="m 95.676325,165.95581 c -0.25161,1.31777 -0.971527,2.67522 -1.535653,3.73931 -0.564127,1.06409 -1.260596,1.9789 -2.041594,2.69951 -0.780993,0.72061 -1.64231,1.26054 -2.548717,1.53433 -1.087447,0.32848 -1.812371,-0.16429 -2.768914,-0.12668 -1.069751,0.0421 -1.487145,0.35383 -2.492385,0.18042 -1.523077,-0.26275 -2.899719,-1.70387 -3.610102,-2.4649 -0.642032,-0.68781 -1.865898,-2.83833 -2.267538,-3.67366 -0.401646,-0.83535 -0.666852,-4.40088 -0.25523,-5.42166 0.404846,-1.00398 1.066848,-2.48157 1.621949,-2.96009 0.555094,-0.47852 1.888271,-1.29576 2.6064,-1.4318 0.718129,-0.13604 1.720875,-0.0851 2.558976,0.22676 1.058588,0.39392 0.849924,1.06884 1.932455,1.06884 1.082531,0 1.840042,-1.13405 2.96367,-1.2066 1.082354,-0.0699 1.542719,-0.20492 3.121538,0.60473 0.875372,0.44891 2.135671,2.17294 2.54658,3.14449 0.410916,0.97154 0.511247,2.29226 0.168565,4.087 z"
       sodipodi:nodetypes="sssssssssssssssss" /><path
       id="rect5"
       style="opacity:1;fill:#7c4900;stroke-width:3.41699"
       d="m 126.08276,145.93483 c 0.63544,0 1.14701,0.51157 1.14701,1.14701 v 2.82341 c 0,0.63544 -0.51157,1.147 -1.14701,1.147 -0.63544,0 -1.14701,-0.51156 -1.14701,-1.147 v -2.82341 c 0,-0.63544 0.51157,-1.14701 1.14701,-1.14701 z" /><path
       id="rect5-5"
       style="fill:#a44900;stroke-width:3.41699"
       d="m 87.032477,153.01839 c 0.635443,0 1.147009,0.51156 1.147009,1.14701 v 2.8234 c 0,0.63545 -0.511566,1.14701 -1.147009,1.14701 -0.635443,0 -1.147009,-0.51156 -1.147009,-1.14701 v -2.8234 c 0,-0.63545 0.511566,-1.14701 1.147009,-1.14701 z" /><path
       id="rect6"
       style="opacity:1;fill:#004900;fill-opacity:1;stroke:none;stroke-width:3.99722;stroke-opacity:1"
       d="m 130.0528,145.80231 c 0,0 1.86066,-1.43139 2.90983,-2.01542 1.01969,-0.56761 3.23594,-1.4168 3.23594,-1.4168 0.80797,-0.35361 5.25045,-0.74003 6.09937,-0.81486 l 3.07372,-0.27091 c 0.84889,-0.0748 -0.40745,0.86087 0.11465,0.50476 0,0 -2.61593,2.64504 -4.95831,4.42465 -0.95875,0.7284 -3.26504,1.77951 -3.26504,1.77951 -3.80536,2.07361 -6.50946,0.0831 -8.71379,1.92685 l -1.01853,0.85191 c -0.64411,0.53875 0.60645,-2.82555 2.52238,-4.96955 5e-5,-7e-5 -1.3e-4,-1.7e-4 -1.3e-4,-1.7e-4 z"
       sodipodi:nodetypes="sassssssssss" /><path
       id="rect6-6"
       style="fill:#004900;fill-opacity:1;stroke-width:2.03224"
       d="m 89.049828,155.31274 c 0,0 0.579617,-0.86972 0.947269,-1.23626 0.357327,-0.35624 1.204309,-0.91704 1.204309,-0.91704 0.300696,-0.22894 2.239245,-0.62259 2.609508,-0.69833 l 1.340619,-0.2743 c 0.370257,-0.0757 -0.02675,0.49438 0.14418,0.27565 0,0 -0.69914,1.57398 -1.432915,2.65644 -0.300343,0.44305 -1.151101,1.1196 -1.151101,1.1196 -1.341661,1.30466 -2.928897,0.30855 -3.588508,1.42104 l -0.304772,0.51403 c -0.192737,0.32509 -0.242739,-1.59319 0.231477,-2.86078 1.4e-5,-4e-5 -8.1e-5,-8e-5 -8.1e-5,-8e-5 z"
       sodipodi:nodetypes="sassssssssss" /><path
       id="rect6-6-5"
       style="fill:#004900;fill-opacity:1;stroke-width:2.03224"
       d="m 84.886612,154.98416 c 0,0 -0.57962,-0.86972 -0.94727,-1.23626 -0.35732,-0.35624 -1.20431,-0.91704 -1.20431,-0.91704 -0.30069,-0.22894 -2.23924,-0.62259 -2.6095,-0.69833 l -1.34062,-0.2743 c -0.37026,-0.0757 0.0267,0.49438 -0.14418,0.27565 0,0 0.69914,1.57398 1.43291,2.65644 0.30034,0.44305 1.1511,1.1196 1.1511,1.1196 1.34166,1.30466 2.9289,0.30855 3.58851,1.42104 l 0.30477,0.51403 c 0.19274,0.32509 0.24274,-1.59319 -0.23147,-2.86078 -2e-5,-4e-5 8e-5,-8e-5 8e-5,-8e-5 z"
       sodipodi:nodetypes="sassssssssss" /><path
       id="path1"
       style="fill:#ffffff;fill-opacity:1;stroke-width:3.41699"
       d="m 72.79095,167.81624 c 2.532846,7.67279 9.59088,6.80619 6.617359,7.3232 -9.077919,1.57841 -12.79218,-6.76595 -12.970025,-10.14661 -0.406138,-7.72031 2.372339,-13.30265 4.764499,-12.3524 5.931687,2.35627 -1.932415,4.51086 1.588167,15.17581 z"
       sodipodi:nodetypes="sssss" /><path
       id="path1-2"
       style="fill:#ffffff;fill-opacity:1;stroke:none;stroke-width:3.41699;stroke-opacity:1"
       d="m 117.98749,129.11662 c -5.06994,5.93138 -6.01061,7.81335 -6.24726,7.46601 -2.4142,-3.54335 1.89726,-12.24784 4.81903,-13.95773 2.7514,-1.61019 7.09532,-1.51103 7.30213,-1.38408 0.22388,0.13744 0.45011,0.47725 -5.8739,7.8758 z"
       sodipodi:nodetypes="sssss" /><path
       id="rect4"
       style="fill:#007b00;fill-opacity:1;stroke-width:4.74344"
       d="m 51.615403,123.08288 c 0,0 18.22229,-5.36568 29.259648,-1.85286 10.709664,3.40853 15.659865,15.55387 15.264043,15.61697 -19.424548,3.09668 -34.92306,-9.2643 -34.92306,-9.2643 0,0 6.33963,14.37003 29.389375,13.98468 -3.277589,1.77366 -16.152365,3.16685 -23.461269,-0.22056 -7.250235,-3.36022 -15.21715,-12.32311 -15.528737,-18.26393 z"
       sodipodi:nodetypes="sssccss" /><path
       id="rect4-4"
       style="fill:#007b00;fill-opacity:1;stroke-width:3.19638"
       d="m 75.814284,86.538954 c 0,0 10.831524,6.821164 13.973445,13.966006 3.048635,6.9327 -0.885583,14.84658 -1.093841,14.6746 -10.220156,-8.43991 -10.876776,-21.782313 -10.876776,-21.782313 0,0 -4.43979,9.607483 6.024937,21.088073 -2.356978,-0.86665 -8.797692,-6.75446 -10.34178,-11.95859 -1.531695,-5.162348 -0.550405,-13.1833 2.314015,-15.987776 z"
       sodipodi:nodetypes="sssccss" /><path
       id="rect4-4-2"
       style="fill:#007b00;fill-opacity:1;stroke-width:2.83828"
       d="m 105.3393,71.397928 c 0,0 6.18989,9.533019 6.06096,16.462537 -0.12509,6.72376 -6.24424,11.637269 -6.34805,11.421065 -5.094094,-10.610079 -0.65327,-21.609379 -0.65327,-21.609379 0,0 -7.157537,6.090315 -2.99896,19.242458 -1.577022,-1.576553 -4.575358,-8.721646 -3.881417,-13.491639 0.688364,-4.731695 4.467177,-10.831489 7.820737,-12.025042 z"
       sodipodi:nodetypes="sssccss" /><path
       id="rect4-4-2-6"
       style="fill:#007b00;fill-opacity:1;stroke-width:3.67209"
       d="m 138.82886,84.680695 c 0,0 -0.0879,14.463569 -5.23582,21.318715 -4.99501,6.65159 -15.2663,6.74786 -15.22414,6.44874 2.06973,-14.67876 14.8942,-22.211594 14.8942,-22.211594 0,0 -12.2621,0.456965 -17.19597,16.948434 -0.59328,-2.82935 1.27524,-12.372801 5.48359,-16.613234 4.17456,-4.206387 12.73217,-7.343522 17.27814,-5.891061 z"
       sodipodi:nodetypes="sssccss" /><path
       id="rect4-4-2-6-9"
       style="fill:#007b00;fill-opacity:1;stroke-width:2.62716"
       d="m 153.32572,110.06787 c 0,0 -0.83435,10.31432 -4.87282,14.93048 -3.91853,4.47908 -11.2517,3.9998 -11.20567,3.78864 2.25975,-10.36211 11.81121,-15.05223 11.81121,-15.05223 0,0 -8.77274,-0.32814 -13.17262,11.17444 -0.27236,-2.05024 1.5699,-8.75931 4.79857,-11.56013 3.20273,-2.77833 9.47551,-4.55998 12.64133,-3.2812 z"
       sodipodi:nodetypes="sssccss" /><path
       style="fill:#ff6605;fill-opacity:1;stroke:none;stroke-width:0.529167;stroke-opacity:1"
       inkscape:label="Triangle"
       d="m 111.79481,147.37736 c 0,0 23.2715,-5.074 25.84071,-13.05826 1.13877,-3.53892 -4.08821,-9.44846 -7.58236,-8.17893 -10.98111,3.98976 -18.25835,21.23719 -18.25835,21.23719 z"
       id="path6"
       sodipodi:nodetypes="cssc" /></g></svg>
