<?xml version="1.0" encoding="UTF-8" standalone="no"?>
<!-- Created with Inkscape (http://www.inkscape.org/) -->

<svg
   width="210mm"
   height="297mm"
   viewBox="0 0 210 297"
   version="1.1"
   id="svg1"
   xml:space="preserve"
   inkscape:version="1.3 (0e150ed6c4, 2023-07-21)"
   sodipodi:docname="EMPRESA.svg"
   inkscape:export-filename="EMPRESA.png"
   inkscape:export-xdpi="96"
   inkscape:export-ydpi="96"
   xmlns:inkscape="http://www.inkscape.org/namespaces/inkscape"
   xmlns:sodipodi="http://sodipodi.sourceforge.net/DTD/sodipodi-0.dtd"
   xmlns="http://www.w3.org/2000/svg"
   xmlns:svg="http://www.w3.org/2000/svg"><sodipodi:namedview
     id="namedview1"
     pagecolor="#ffffff"
     bordercolor="#000000"
     borderopacity="0.25"
     inkscape:showpageshadow="2"
     inkscape:pageopacity="0.0"
     inkscape:pagecheckerboard="0"
     inkscape:deskcolor="#d1d1d1"
     inkscape:document-units="mm"
     inkscape:zoom="1.0602152"
     inkscape:cx="345.21293"
     inkscape:cy="622.98673"
     inkscape:window-width="1920"
     inkscape:window-height="1009"
     inkscape:window-x="-8"
     inkscape:window-y="-8"
     inkscape:window-maximized="1"
     inkscape:current-layer="layer1" /><defs
     id="defs1" /><g
     inkscape:label="Capa 1"
     inkscape:groupmode="layer"
     id="layer1"><path
       style="font-weight:bold;font-size:28.9229px;line-height:1.6;font-family:'Segoe Script';-inkscape-font-specification:'Segoe Script, Bold';text-align:center;text-anchor:middle;opacity:0.986275;stroke-width:2.56485"
       d="m 35.658482,198.46479 q 0,0.48016 -0.155348,1.10155 -0.141225,0.60727 -0.466043,1.07331 -0.33894,0.49429 -0.776738,0.79087 -0.423675,0.28245 -0.932085,0.28245 -0.536656,0 -0.819106,-0.35307 -0.28245,-0.35306 -0.28245,-0.98857 0,-0.22596 0.04237,-0.46605 0.04237,-0.24008 0.08474,-0.48016 0.04237,-0.24008 0.08474,-0.46604 0.04237,-0.24009 0.04237,-0.45192 0,-0.32482 -0.08473,-0.52254 -0.07061,-0.19771 -0.197715,-0.29657 -0.11298,-0.11298 -0.268328,-0.14122 -0.155347,-0.0424 -0.310695,-0.0424 -0.706125,0 -1.609966,0.22596 -0.889718,0.21184 -1.821804,0.60727 -0.917963,0.39543 -1.807681,0.9462 -0.875596,0.53666 -1.553476,1.17217 -1.129801,1.07331 -1.977151,2.27373 -0.847351,1.20041 -1.412251,2.45731 -0.550778,1.25691 -0.833228,2.55618 -0.28245,1.29927 -0.28245,2.58442 0,1.04506 0.28245,1.90653 0.296572,0.84736 0.84735,1.45462 0.564901,0.59315 1.369884,0.91797 0.819105,0.32481 1.864171,0.32481 0.663758,0 1.426373,-0.18359 0.762616,-0.19771 1.511109,-0.48016 0.748493,-0.29658 1.412251,-0.64964 0.67788,-0.36718 1.143923,-0.70612 0.494288,-0.35307 0.946208,-0.66376 0.451921,-0.32482 0.748493,-0.32482 0.579023,0 0.762616,0.28245 0.183592,0.26833 0.183592,0.692 0,0.15535 -0.211837,0.46605 -0.211838,0.31069 -0.550778,0.67788 -0.324818,0.36718 -0.734371,0.76261 -0.409552,0.38131 -0.79086,0.67788 -0.663758,0.50841 -1.482864,0.94621 -0.804983,0.4378 -1.680578,0.74849 -0.861473,0.32482 -1.751191,0.49429 -0.875596,0.18359 -1.694702,0.18359 -1.666456,0 -2.993972,-0.49428 -1.313393,-0.49429 -2.231356,-1.42638 -0.917963,-0.93208 -1.412251,-2.2596 -0.494288,-1.34164 -0.494288,-3.03634 0,-2.9516 1.214536,-5.87496 1.214536,-2.93748 3.77071,-5.62076 0.73437,-0.76262 1.793559,-1.53935 1.059188,-0.79087 2.330214,-1.42638 1.285148,-0.63551 2.711522,-1.03094 1.426373,-0.40955 2.880991,-0.40955 1.186291,0 1.991274,0.2542 0.804983,0.25421 1.285149,0.74849 0.480165,0.48017 0.67788,1.17217 0.211838,0.67788 0.211838,1.55348 z m 10.606004,9.43383 q 0.466042,-0.0706 1.002698,-0.14122 0.536655,-0.0706 1.045066,-0.15535 0.50841,-0.0847 0.946208,-0.16947 0.437797,-0.0989 0.73437,-0.19771 -0.05649,-0.25421 -0.127102,-0.55078 -0.07061,-0.3107 -0.141226,-0.60727 -0.07061,-0.31069 -0.141225,-0.57902 -0.05649,-0.28245 -0.09886,-0.48017 -0.254205,-1.32751 -0.480166,-2.89511 -0.22596,-1.5676 -0.33894,-3.09283 -0.268327,0.42367 -0.5649,0.94621 -0.28245,0.52253 -0.579023,1.05918 -0.296573,0.52254 -0.593145,1.04507 -0.296573,0.50841 -0.564901,0.91796 -0.381308,0.57903 -0.819105,1.22866 -0.423676,0.63551 -0.861473,1.3134 -0.423676,0.66375 -0.847351,1.32751 -0.409553,0.66376 -0.762615,1.29927 0.776738,-0.0424 1.581721,-0.11298 0.804983,-0.0706 1.624088,-0.15535 z m 11.919398,6.63758 q 0,0.32482 -0.127103,0.64964 -0.127103,0.31069 -0.367185,0.5649 -0.22596,0.2542 -0.536656,0.40955 -0.310695,0.15535 -0.67788,0.15535 -0.536655,0 -1.073311,-0.35306 -0.536655,-0.35307 -1.059188,-0.91797 -0.522533,-0.57902 -1.016821,-1.28514 -0.480165,-0.70613 -0.917963,-1.41226 -0.437798,-0.70612 -0.804983,-1.32751 -0.367185,-0.63551 -0.635513,-1.04507 -0.45192,0.0283 -1.285148,0.12711 -0.833228,0.0988 -1.835926,0.24008 -1.002698,0.1271 -2.090132,0.28245 -1.07331,0.14122 -2.033641,0.29657 -0.960331,0.14123 -1.708824,0.26833 -0.73437,0.1271 -1.045065,0.21184 -0.607268,0.77673 -1.242781,1.63821 -0.635513,0.84735 -1.313394,1.76531 -0.16947,0.25421 -0.381307,0.52253 -0.211838,0.26833 -0.480166,0.49429 -0.268327,0.21184 -0.607268,0.35306 -0.324817,0.14123 -0.73437,0.14123 -0.240083,0 -0.550778,-0.18359 -0.296573,-0.16947 -0.5649,-0.42368 -0.254205,-0.2542 -0.437798,-0.53665 -0.183593,-0.29658 -0.183593,-0.52254 0,-0.15534 0.240083,-0.59314 0.240083,-0.45192 0.607268,-0.96033 0.02824,-0.0424 0.310695,-0.39543 0.28245,-0.36719 0.692003,-0.90384 0.423675,-0.53666 0.903841,-1.15805 0.480165,-0.62139 0.90384,-1.15804 0.423676,-0.53666 0.706126,-0.90385 0.296572,-0.3813 0.33894,-0.42367 1.228658,-1.55348 2.386704,-3.2623 1.158046,-1.72295 2.245479,-3.40352 0.197715,-0.3107 0.367185,-0.56491 0.16947,-0.2542 0.353063,-0.50841 0.183593,-0.2542 0.381308,-0.53665 0.211837,-0.28245 0.480165,-0.64964 0.494288,-0.66375 0.960331,-1.36988 0.466043,-0.70613 0.833228,-1.51111 0.324818,-0.72025 0.889718,-1.08743 0.5649,-0.38131 1.454618,-0.38131 0.423676,0 0.720248,0.35306 0.296573,0.35307 0.522533,0.94621 0.22596,0.59315 0.39543,1.38401 0.169471,0.77674 0.324818,1.65233 0.155348,0.86147 0.310695,1.76531 0.16947,0.90385 0.381308,1.73707 0.240083,0.94621 0.522533,1.92066 0.296573,0.97446 0.649635,1.82181 0.635513,-0.11298 1.059189,-0.19772 0.423675,-0.0988 0.776738,-0.0988 0.579023,0 0.917963,0.0282 0.33894,0.0283 0.522533,0.14123 0.197715,0.0988 0.254205,0.31069 0.05649,0.19772 0.05649,0.53666 0,0.3813 -0.22596,0.67788 -0.211838,0.29657 -0.579023,0.52253 -0.353063,0.22596 -0.804983,0.38131 -0.451921,0.15535 -0.917963,0.2542 0.127102,0.25421 0.211837,0.45192 0.09886,0.1836 0.183593,0.36719 0.08473,0.16947 0.16947,0.35306 0.08474,0.18359 0.211838,0.40955 0.28245,0.50841 0.593145,1.0027 0.324818,0.48017 0.649635,0.84735 0.08473,0.0847 0.240083,0.24009 0.16947,0.15534 0.353063,0.35306 0.197715,0.19771 0.39543,0.42367 0.211838,0.21184 0.381308,0.42368 0.16947,0.19771 0.268328,0.38131 0.11298,0.16947 0.11298,0.26832 z m 19.757392,-4.05316 q 0,0.81911 -0.409553,1.55348 -0.39543,0.72025 -1.087433,1.35576 -0.692003,0.62139 -1.609966,1.15805 -0.917963,0.52253 -1.948907,0.9462 -1.01682,0.42368 -2.104253,0.7485 -1.073311,0.32482 -2.090132,0.53665 -1.002698,0.21184 -1.892416,0.32482 -0.875596,0.11298 -1.511109,0.11298 -0.141225,0 -0.367185,-0.0141 -0.22596,-0.0141 -0.466043,-0.0424 -0.240082,-0.0282 -0.466043,-0.0565 -0.211837,-0.0282 -0.353062,-0.0565 -0.268328,-0.0565 -0.663758,-0.16947 -0.381308,-0.0989 -0.804983,-0.2542 -0.409553,-0.14123 -0.819106,-0.33894 -0.409553,-0.1836 -0.73437,-0.39544 -0.324818,-0.22596 -0.522533,-0.46604 -0.197715,-0.2542 -0.197715,-0.52253 0,-0.0847 0.07061,-0.29657 0.07061,-0.22596 0.183593,-0.45192 0.11298,-0.24009 0.254205,-0.40956 0.155348,-0.18359 0.296573,-0.18359 0.268327,0 0.706125,0.15535 0.451921,0.14122 0.988576,0.31069 0.550778,0.16947 1.143923,0.32482 0.607268,0.14123 1.186291,0.14123 0.720248,0 1.539354,-0.0989 0.833228,-0.0989 1.708823,-0.26833 0.875596,-0.18359 1.751191,-0.4378 0.875596,-0.26832 1.680579,-0.59314 0.804983,-0.32482 1.496986,-0.70613 0.692003,-0.38131 1.200413,-0.8191 0.07061,-0.0706 0.155348,-0.1836 0.08473,-0.11298 0.16947,-0.24008 0.08473,-0.1271 0.141225,-0.2542 0.05649,-0.12711 0.05649,-0.21184 0,-0.53666 -0.367185,-0.94621 -0.367185,-0.42367 -1.059188,-0.77674 -0.692003,-0.35306 -1.666456,-0.67788 -0.974454,-0.33894 -2.188989,-0.70612 -0.833229,-0.25421 -1.708824,-0.55078 -0.875596,-0.29657 -1.708824,-0.66376 -0.833228,-0.38131 -1.567598,-0.86147 -0.734371,-0.48017 -1.285149,-1.10156 -0.550777,-0.62139 -0.875595,-1.39813 -0.324818,-0.79086 -0.324818,-1.79356 0,-0.59314 0.296573,-1.1298 0.296572,-0.53665 0.776738,-1.01682 0.494288,-0.49428 1.115678,-0.90384 0.62139,-0.40955 1.256903,-0.73437 0.635513,-0.33894 1.228659,-0.5649 0.593145,-0.24008 1.030943,-0.35306 0.649635,-0.16947 1.214536,-0.29657 0.5649,-0.12711 1.115678,-0.21184 0.5649,-0.0847 1.143923,-0.1271 0.593146,-0.0424 1.271026,-0.0424 0.254205,0 0.706126,0.0282 0.466042,0.0141 1.002698,0.0847 0.550778,0.0565 1.115678,0.18359 0.579023,0.1271 1.045066,0.33894 0.466042,0.21184 0.762615,0.52253 0.296573,0.3107 0.296573,0.73438 0,0.42367 -0.240083,0.90384 -0.22596,0.46604 -0.593145,0.91796 -0.353063,0.4378 -0.790861,0.8191 -0.437798,0.38131 -0.861473,0.64964 -0.423675,0.26833 -0.776738,0.38131 -0.33894,0.11298 -0.522533,0 -0.22596,-0.14123 -0.28245,-0.40956 -0.05649,-0.26832 0,-0.59314 0.07061,-0.32482 0.211838,-0.67788 0.141225,-0.36719 0.296572,-0.67788 -0.183592,-0.11298 -0.536655,-0.19772 -0.353063,-0.0988 -0.762615,-0.15534 -0.409553,-0.0706 -0.819106,-0.0989 -0.39543,-0.0282 -0.67788,-0.0282 -0.381308,0 -0.932086,0.0847 -0.550778,0.0706 -1.172168,0.22596 -0.607268,0.15535 -1.214536,0.39543 -0.607268,0.22596 -1.101556,0.55078 -0.480165,0.32481 -0.79086,0.73437 -0.296573,0.40955 -0.296573,0.91796 0,0.49429 0.522533,0.97445 0.536655,0.48017 1.355761,0.93209 0.833228,0.45192 1.850048,0.86147 1.016821,0.40955 1.977152,0.76262 0.974453,0.33894 1.779436,0.60727 0.819105,0.26832 1.242781,0.45192 0.861473,0.36718 1.567598,0.73437 0.706126,0.35306 1.200414,0.84735 0.50841,0.48016 0.776738,1.15804 0.28245,0.67788 0.28245,1.6947 z m 14.842756,-2.92336 q 0.62139,-0.15534 1.256903,-0.32481 0.649635,-0.16947 1.200413,-0.33894 -0.22596,-0.69201 -0.466043,-1.4405 -0.240082,-0.74849 -0.50841,-1.48286 -0.254205,-0.7485 -0.522533,-1.4405 -0.268327,-0.70612 -0.5649,-1.28515 -1.200413,1.63821 -2.414949,3.44589 -1.200414,1.80769 -2.287847,3.68598 0.423675,-0.0424 0.889718,-0.0565 0.466043,-0.0283 0.748493,-0.11298 0.381308,-0.11298 0.677881,-0.19772 0.310695,-0.0847 0.607268,-0.15534 0.310695,-0.0706 0.635513,-0.14123 0.324817,-0.0706 0.748493,-0.15535 z m 9.433838,7.11775 q 0,0.35306 -0.14123,0.66376 -0.1271,0.31069 -0.36718,0.55077 -0.22596,0.22596 -0.5649,0.36719 -0.32482,0.14123 -0.70613,0.14123 -0.35306,0 -0.692001,-0.22597 -0.338941,-0.22596 -0.663758,-0.57902 -0.310695,-0.35306 -0.607268,-0.79086 -0.28245,-0.45192 -0.522533,-0.90384 -0.22596,-0.45192 -0.409553,-0.86147 -0.183592,-0.40955 -0.296572,-0.67788 -0.155348,-0.38131 -0.310696,-0.70613 -0.155347,-0.32482 -0.324817,-0.83323 -0.09886,-0.28245 -0.155348,-0.42367 -0.04237,-0.14123 -0.08473,-0.21184 -0.02824,-0.0847 -0.05649,-0.1271 -0.01412,-0.0565 -0.04237,-0.15535 -0.28245,0.1271 -0.607268,0.15535 -0.324817,0.0141 -0.720248,0.0141 -0.07061,0 -0.240082,0.0565 -0.16947,0.0424 -0.39543,0.11298 -0.211838,0.0706 -0.451921,0.15535 -0.22596,0.0706 -0.437798,0.1271 -0.67788,0.16947 -1.46874,0.32482 -0.790861,0.15535 -1.652334,0.31069 -0.861473,0.14123 -1.765314,0.29658 -0.889718,0.14122 -1.793558,0.29657 -0.09886,0.0141 -0.169471,0.0565 -0.07061,0.0424 -0.197715,0.22596 -0.127102,0.16947 -0.381307,0.53666 -0.254206,0.36718 -0.720248,1.04506 -0.536656,0.77674 -1.016821,1.35576 -0.480165,0.5649 -0.903841,0.97445 -0.409552,0.40956 -0.875595,0.6214 -0.451921,0.21183 -0.946208,0.21183 -0.649636,0 -1.158046,-0.16947 -0.508411,-0.15534 -0.861473,-0.40955 -0.33894,-0.25421 -0.522533,-0.55078 -0.16947,-0.29657 -0.16947,-0.55078 0,-0.48016 0.409553,-0.66375 0.409552,-0.19772 1.1298,-0.32482 0,-0.0141 0.155348,-0.21184 0.155347,-0.19771 0.367185,-0.45192 0.211838,-0.2542 0.409553,-0.49429 0.211838,-0.2542 0.296573,-0.3813 0.550777,-0.76262 1.143923,-1.58173 0.607268,-0.83322 1.327516,-1.90653 v 0.0141 q 0.367185,-0.53666 0.593145,-0.88972 0.240083,-0.35306 0.45192,-0.66376 0.211838,-0.31069 0.437798,-0.63551 0.240083,-0.32482 0.579023,-0.80498 0.875596,-1.22866 1.525231,-2.07601 0.663758,-0.86148 1.087433,-1.42638 0.508411,-0.79086 0.960331,-1.51111 0.197715,-0.31069 0.381308,-0.62139 0.183592,-0.32481 0.353062,-0.62139 0.169471,-0.29657 0.296573,-0.55077 0.141225,-0.26833 0.211838,-0.45192 1.680578,-4.10965 2.880992,-4.10965 0.522533,0 0.84735,0.0847 0.324818,0.0706 0.494288,0.26833 0.183593,0.18359 0.240083,0.49429 0.07061,0.31069 0.07061,0.77673 0,0.4378 0,0.69201 0,0.24008 -0.01412,0.42367 -0.01412,0.1836 -0.02824,0.36719 0,0.18359 -0.02824,0.49429 0.33894,0.72024 0.649635,1.48286 0.324818,0.76261 0.607268,1.51111 0.05649,0.16947 0.240083,0.72025 0.197715,0.53665 0.45192,1.27102 0.268328,0.73437 0.550778,1.55348 0.296573,0.8191 0.536655,1.53935 0.254205,0.72025 0.437798,1.24278 0.183593,0.52253 0.240083,0.66376 0.183592,0.79086 1.030944,2.61266 0.11298,0.22596 0.18359,0.39543 0.0847,0.16947 0.18359,0.35307 0.11298,0.18359 0.28245,0.42367 0.16947,0.24008 0.45192,0.62139 0.97446,1.32752 0.97446,1.94891 z m 19.75739,-17.65314 q 0,0.3107 -0.18359,0.60727 -0.1836,0.29657 -0.48017,0.52253 -0.28245,0.22596 -0.62139,0.36719 -0.33894,0.1271 -0.64963,0.1271 -0.26833,0 -0.64964,0 -0.36718,-0.0141 -0.73437,-0.0141 -0.35306,0 -0.66376,0 -0.31069,-0.0141 -0.46604,-0.0141 -0.3107,0 -0.74849,0.0141 -0.42368,0.0141 -0.88972,0.0282 -0.46604,0.0141 -0.91797,0.0424 -0.45192,0.0141 -0.77673,0.0424 -1.32752,0.0847 -2.1325,0.22596 -0.80499,0.14122 -1.29927,0.39543 0,0.76261 -0.12711,1.59584 -0.1271,0.83323 -0.28245,1.58172 -0.11298,0.55078 -0.19771,1.17217 -0.0847,0.60727 -0.1271,1.18629 0.26832,0.0282 0.60726,0.0424 0.35307,0.0141 0.72025,0.0141 0.46605,0 0.91797,0 0.45192,-0.0141 0.79086,-0.0282 0.15534,0 0.5649,-0.0141 0.42367,-0.0282 0.96033,-0.0424 0.53665,-0.0282 1.14392,-0.0565 0.60727,-0.0282 1.14392,-0.0565 0.55078,-0.0282 0.97446,-0.0424 0.42367,-0.0141 0.59314,-0.0141 0.26833,0 0.53666,0.0141 0.26833,0.0141 0.49429,0.0424 0.24008,0.0141 0.40955,0.0424 0.16947,0.0141 0.2542,0.0424 0.3107,0.0847 0.53666,0.28245 0.22596,0.1836 0.22596,0.60727 0,0.38131 -0.11298,0.64964 -0.11298,0.26832 -0.3107,0.46604 -0.18359,0.18359 -0.43779,0.32482 -0.24009,0.14122 -0.49429,0.2542 -0.4378,0.19772 -1.05919,0.28245 -0.60727,0.0847 -1.39813,0.0847 -0.49429,0 -1.11568,0.0565 -0.62139,0.0565 -1.21453,0.0565 -0.62139,0 -1.34164,0.0282 -0.70613,0.0283 -1.41225,0.0706 -0.69201,0.0424 -1.3134,0.0706 -0.62139,0.0282 -1.05918,0.0282 -0.38131,1.55348 -0.50841,3.29055 -0.12711,1.73707 -0.12711,3.41764 v 0.3107 q -0.19771,0.52253 -0.59314,0.84735 -0.38131,0.3107 -0.93209,0.3107 -0.64963,0 -1.04506,-0.15535 -0.38131,-0.15535 -0.59315,-0.45192 -0.19771,-0.3107 -0.26833,-0.77674 -0.0565,-0.48017 -0.0565,-1.11568 0.0282,-0.5649 0.0565,-1.08743 0.0282,-0.53666 0.0989,-1.07331 0.0847,-0.69201 0.22596,-1.51111 0.14123,-0.83323 0.29657,-1.70883 0.15535,-0.87559 0.3107,-1.75119 0.15535,-0.87559 0.26833,-1.66645 0.0141,-0.0706 0.0706,-0.49429 0.0565,-0.4378 0.14122,-1.04507 0.0847,-0.62139 0.16947,-1.32751 0.0989,-0.70613 0.1836,-1.3134 0.0847,-0.60726 0.14122,-1.01682 0.0565,-0.42367 0.0706,-0.46604 -0.19771,-0.0565 -0.36718,-0.21184 -0.15535,-0.15534 -0.26833,-0.35306 -0.0989,-0.21184 -0.15535,-0.4378 -0.0565,-0.24008 -0.0565,-0.45192 0,-0.90384 0.45192,-1.35576 0.45193,-0.45192 1.21454,-0.45192 0.67788,0 1.34164,-0.0282 0.67788,-0.0282 1.1298,-0.0282 0.52253,0 0.86147,0 0.33894,-0.0141 0.60727,-0.0282 0.28245,-0.0283 0.5649,-0.0565 0.28245,-0.0283 0.692,-0.0847 h -0.0141 q 0.14123,-0.0141 0.29657,-0.0282 0.16947,-0.0141 0.35307,-0.0424 1.51111,-0.19772 2.97985,-0.26833 1.48286,-0.0706 2.86687,-0.0706 0.32481,0 0.66375,0.0989 0.35307,0.0988 0.63552,0.31069 0.28245,0.19772 0.45192,0.49429 0.18359,0.29657 0.18359,0.692 z m 21.73454,4.53333 q 0,1.53935 -0.38131,2.93748 -0.38131,1.39813 -1.04507,2.65503 -0.66376,1.24278 -1.55347,2.35846 -0.88972,1.10156 -1.90654,2.06189 -1.01682,0.94621 -2.11838,1.73707 -1.10155,0.79086 -2.17487,1.41225 -0.55077,0.31069 -1.35576,0.64963 -0.80498,0.33894 -1.68057,0.60727 -0.86148,0.28245 -1.70883,0.46604 -0.83323,0.1836 -1.44049,0.1836 -1.24279,0 -2.25961,-0.55078 -1.01682,-0.53666 -1.73706,-1.45462 -0.70613,-0.93209 -1.10156,-2.14662 -0.38131,-1.22866 -0.38131,-2.58442 0,-0.692 0.0706,-1.29927 0.0847,-0.60727 0.22596,-1.17217 0.14123,-0.57902 0.33894,-1.14392 0.21184,-0.57903 0.48017,-1.20042 0.32482,-0.73437 0.83323,-1.55347 0.52253,-0.83323 1.17217,-1.66646 0.64963,-0.83323 1.384,-1.63821 0.7485,-0.80498 1.49699,-1.51111 0.76261,-0.70612 1.51111,-1.27103 0.74849,-0.5649 1.41225,-0.90384 0.26833,-0.14122 0.60727,-0.26832 0.35306,-0.12711 0.692,-0.22596 0.35306,-0.0989 0.67788,-0.15535 0.32482,-0.0565 0.55078,-0.0565 0.53665,-0.692 1.28515,-0.96033 0.74849,-0.26833 1.59584,-0.26833 0.96033,0 1.83593,0.3107 0.88971,0.29657 1.65233,0.86147 0.76261,0.55078 1.36988,1.34164 0.62139,0.77674 1.04507,1.73707 0.26833,0.62139 0.4378,1.31339 0.16947,0.692 0.16947,1.39813 z m -6.45399,-4.19439 q -0.22596,0 -0.36719,0.28245 -0.14122,0.28245 -0.32481,0.62139 -0.1836,0.33894 -0.46605,0.62139 -0.28245,0.28245 -0.79086,0.28245 -0.31069,0 -0.46604,-0.0282 -0.15535,-0.0283 -0.26833,-0.0565 -0.11298,-0.0283 -0.24008,-0.0565 -0.11298,-0.0282 -0.35306,-0.0282 -0.53666,0 -1.22866,0.40956 -0.67788,0.39543 -1.41225,1.04506 -0.72025,0.63551 -1.45462,1.45462 -0.72025,0.81911 -1.34164,1.66646 -0.62139,0.83322 -1.10155,1.62409 -0.48017,0.77673 -0.70613,1.35576 -0.28245,0.73437 -0.48017,1.55347 -0.18359,0.80499 -0.18359,1.63821 0,0.62139 0.22596,1.24278 0.22596,0.60727 0.59315,1.10156 0.3813,0.48017 0.84735,0.79086 0.48016,0.29657 0.98857,0.29657 0.79086,0 1.70883,-0.2542 0.91796,-0.26833 1.87829,-0.72025 0.97445,-0.45192 1.94891,-1.05919 0.97445,-0.62139 1.86417,-1.32751 0.88972,-0.70613 1.65233,-1.45462 0.76262,-0.76262 1.29927,-1.51111 0.14123,-0.22596 0.3107,-0.5649 0.16947,-0.35306 0.33894,-0.76262 0.16947,-0.40955 0.32482,-0.86147 0.16947,-0.45192 0.29657,-0.86147 0.1271,-0.42368 0.19771,-0.79086 0.0847,-0.36719 0.0847,-0.62139 0,-0.5649 -0.14123,-1.14393 -0.14122,-0.59314 -0.39543,-1.15804 -0.24008,-0.5649 -0.5649,-1.05919 -0.32481,-0.49429 -0.70612,-0.86147 -0.36719,-0.36719 -0.77674,-0.57903 -0.39543,-0.22596 -0.79086,-0.22596 z m 31.01303,5.25358 q 0,2.11837 -0.74849,4.06728 -0.73437,1.93478 -2.18899,3.62948 -1.45462,1.68058 -3.61536,3.05047 -2.16075,1.36988 -4.99937,2.34433 -0.25421,0.0847 -0.59315,0.16947 -0.33894,0.0706 -0.66376,0.11298 -0.32481,0.0565 -0.60726,0.0847 -0.26833,0.0424 -0.39543,0.0424 -1.28515,0 -2.45732,-0.21183 -1.15805,-0.21184 -2.14662,-0.67788 -0.98858,-0.48017 -1.77944,-1.24278 -0.79086,-0.77674 -1.34164,-1.89242 -0.35306,-0.72025 -0.48016,-1.36988 -0.1271,-0.64964 -0.1271,-1.32752 0,-0.90384 0.28245,-2.03364 0.29657,-1.14392 0.83322,-2.37258 0.53666,-1.24278 1.28515,-2.51381 0.76262,-1.28515 1.68058,-2.47144 0.93209,-1.20041 2.0054,-2.24548 1.07331,-1.05919 2.24548,-1.83592 1.18629,-0.79086 2.42907,-1.24278 1.2569,-0.45192 2.54205,-0.45192 0.19771,0 0.48016,0.14122 0.28246,0.1271 0.60727,0.3107 0.33894,0.16947 0.67788,0.33894 0.33894,0.16947 0.64964,0.2542 0.73437,0.19772 1.49698,0.62139 0.76262,0.42368 1.46875,1.01682 0.72024,0.57903 1.34163,1.28515 0.63552,0.70613 1.10156,1.46874 0.46604,0.74849 0.73437,1.51111 0.28245,0.74849 0.28245,1.4405 z m -3.07871,0.96033 q 0,-0.46605 -0.0706,-1.04507 -0.0706,-0.57902 -0.29657,-1.18629 -0.22596,-0.60727 -0.64964,-1.21454 -0.40955,-0.60726 -1.10155,-1.1298 -0.0989,-0.0706 -0.3107,-0.21183 -0.19771,-0.15535 -0.42367,-0.29658 -0.21184,-0.14122 -0.40956,-0.24008 -0.19771,-0.11298 -0.28245,-0.11298 -0.0847,0 -0.15534,0.0282 -0.0706,0.0282 -0.19772,0.0706 -0.1271,0.0282 -0.33894,0.0565 -0.19771,0.0282 -0.53665,0.0282 -0.25421,0 -0.4378,-0.0847 -0.16947,-0.0989 -0.32482,-0.19772 -0.0989,-0.0706 -0.18359,-0.11298 -0.0847,-0.0424 -0.0847,-0.0565 -0.19771,-0.0141 -0.36718,-0.0141 -0.16947,-0.0141 -0.32482,-0.0141 -0.18359,0 -0.36719,0.0141 -0.16947,0.0141 -0.39543,0.0565 -0.21183,0.0283 -0.49428,0.0989 -0.26833,0.0565 -0.64964,0.15535 -0.4378,0.11298 -0.98858,0.50841 -0.53665,0.3813 -1.14392,0.98857 -0.59314,0.59315 -1.21453,1.35576 -0.62139,0.7485 -1.20042,1.59585 -0.57902,0.83322 -1.10155,1.72294 -0.50841,0.88972 -0.90384,1.75119 -0.38131,0.84735 -0.60727,1.62409 -0.21184,0.77674 -0.21184,1.41225 0,1.10156 0.50841,1.8783 0.50841,0.77673 1.28515,1.27102 0.79086,0.49429 1.73707,0.72025 0.96033,0.22596 1.85005,0.22596 0.87559,0 1.99127,-0.42367 1.11568,-0.4378 2.27372,-1.17217 1.15805,-0.73437 2.25961,-1.6947 1.10155,-0.97446 1.96302,-2.04777 0.86148,-1.07331 1.38401,-2.17486 0.52253,-1.11568 0.52253,-2.1325 z m 24.57317,-0.29658 q 0,-0.93208 -0.36719,-1.58172 -0.35306,-0.66376 -0.94621,-1.11568 -0.57902,-0.45192 -1.32751,-0.70612 -0.74849,-0.25421 -1.52523,-0.38131 -0.94621,-0.15535 -1.89242,-0.22596 -0.94621,-0.0847 -1.92066,-0.0847 -0.40955,0 -0.88972,0.0424 -0.46604,0.0283 -0.97445,0.0847 -0.50841,0.0424 -1.03094,0.0989 -0.50842,0.0424 -1.0027,0.0565 -0.24009,1.21453 -0.48017,2.42907 -0.22596,1.20041 -0.42367,2.24548 -0.19772,1.03094 -0.33894,1.8218 -0.14123,0.79086 -0.1836,1.15805 -0.11298,0.80498 -0.22596,1.68058 -0.0988,0.86147 -0.0988,1.58172 0,0.35306 0.0282,0.62139 0.0283,0.26832 0.0989,0.50841 1.29927,-0.22596 2.73977,-0.70613 1.44049,-0.49429 3.2058,-1.08743 0.93209,-0.3107 1.7512,-0.63551 0.83322,-0.32482 1.49698,-0.63552 0.67788,-0.32482 1.17217,-0.62139 0.50841,-0.31069 0.80498,-0.57902 0.0989,-0.0847 0.29658,-0.32482 0.21183,-0.24008 0.46604,-0.57902 0.26833,-0.33894 0.53665,-0.73437 0.28245,-0.40955 0.50841,-0.81911 0.22596,-0.42367 0.36719,-0.80498 0.15535,-0.39543 0.15535,-0.70613 z m 3.44589,0 q 0,1.80769 -1.41225,3.58712 -1.28515,1.62409 -3.3894,3.03634 -0.93209,0.63551 -2.01952,1.22866 -1.08744,0.57902 -2.16075,1.07331 -1.08743,0.49429 -2.06188,0.86147 -0.96033,0.36719 -1.79356,0.62139 -0.57902,0.1836 -1.2569,0.46605 -0.67789,0.26832 -1.5676,0.73437 -0.39543,0.21183 -0.81911,0.35306 -0.42367,0.1271 -0.80498,0.21184 -0.36719,0.0847 -0.66376,0.1271 -0.29657,0.0282 -0.42368,0.0282 -0.84735,0 -1.45461,-0.48016 -0.60727,-0.48017 -0.79086,-1.27103 -0.14123,-0.59314 -0.21184,-1.00269 -0.0565,-0.40956 -0.0565,-0.6214 0,-0.0847 0.0282,-0.24008 0.0282,-0.16947 0.0565,-0.33894 0.0282,-0.16947 0.0565,-0.33894 0.0282,-0.16947 0.0282,-0.26833 0,-0.15534 0.0141,-0.36718 0.0282,-0.21184 0.0565,-0.4378 0.0424,-0.22596 0.0706,-0.45192 0.0424,-0.22596 0.0706,-0.40955 0.36718,-1.89242 0.63551,-3.84132 0.28245,-1.96303 0.72025,-4.0108 0.0424,-0.19771 0.0988,-0.4378 0.0565,-0.24008 0.11298,-0.48016 0.0565,-0.25421 0.0989,-0.46604 0.0424,-0.22596 0.0424,-0.36719 0,-0.24008 -0.11298,-0.31069 -0.0989,-0.0847 -0.28245,-0.21184 -0.19772,-0.15535 -0.33894,-0.26833 -0.14123,-0.1271 -0.24008,-0.24008 -0.0847,-0.1271 -0.12711,-0.26833 -0.0424,-0.14122 -0.0424,-0.33894 0,-0.31069 0.15534,-0.66376 0.16947,-0.36718 0.4378,-0.66376 0.28245,-0.31069 0.63551,-0.50841 0.36719,-0.21183 0.76262,-0.21183 0.29657,0 0.77674,0.0424 0.48016,0.0283 0.96033,0.0847 0.48016,0.0424 0.86147,0.0847 0.39543,0.0283 0.50841,0.0283 1.03095,0 2.31609,-0.0847 1.29927,-0.0847 2.58442,-0.0847 1.85005,0 3.46002,0.36718 1.60996,0.35307 2.93748,1.11568 0.29657,0.16947 0.64964,0.40956 0.35306,0.24008 0.72024,0.59314 0.36719,0.33894 0.72025,0.81911 0.36719,0.48016 0.67788,1.15804 0.36719,0.79086 0.5649,1.48287 0.21184,0.67788 0.21184,1.17216 z"
       id="text1"
       aria-label="CASAFOOD" /><path
       id="rect1"
       style="opacity:0.986;stroke-width:3.0135"
       d="m 71.940435,178.52165 h 66.119125 c 1.7325,0 3.12726,1.39476 3.12726,3.12726 0,1.7325 -1.39476,3.12726 -3.12726,3.12726 H 71.940435 c -1.7325,0 -3.127256,-1.39476 -3.127256,-3.12726 0,-1.7325 1.394756,-3.12726 3.127256,-3.12726 z" /><g
       id="g3"
       transform="translate(-2.0992261e-6,0.18991405)"><rect
         style="opacity:0.986;fill:#000000;stroke-width:3.0135"
         id="rect2"
         width="6.2545094"
         height="51.823116"
         x="101.87274"
         y="121.82251"
         ry="3.1272564" /><path
         id="rect3"
         style="opacity:1;stroke-width:3.41699"
         d="m 100.34199,103.7176 c 0.67297,2.97793 -0.890366,10.36304 1.33031,10.90647 1.67734,0.41047 1.35052,-2.26863 1.43429,-5.05126 0.0852,-2.8294 -0.13916,-5.7121 0.25071,-6.29747 1.44531,-2.17007 3.51137,-0.23712 3.51137,-0.23712 0.45914,-0.10334 -0.52539,11.34753 0.61845,11.48318 2.35904,0.27976 1.81371,-0.0784 1.90719,-5.28685 0.0506,-2.81852 0.20031,-5.70649 0.20031,-5.70649 0.17985,-1.65911 3.71383,-1.51143 3.69588,0.22098 l -0.15797,15.24992 c -0.0302,2.91739 -5.01855,7.15266 -5.01855,7.15266 l -5.76408,-0.008 c -1.73251,-0.002 -5.570211,-4.90708 -5.577272,-6.63956 l -0.06318,-15.50264 c -0.0071,-1.73249 3.152499,-2.40906 3.632702,-0.28416 z"
         sodipodi:nodetypes="sssssssssscsssss" /></g><path
       id="path4"
       style="opacity:1;fill:#af0000;fill-opacity:1;stroke-width:2.52478;stroke:none;stroke-opacity:1"
       d="m 139.28691,161.86289 c -0.38136,1.99732 -1.47253,4.05479 -2.32757,5.66763 -0.85504,1.61283 -1.91067,2.99939 -3.09442,4.09161 -1.18374,1.09222 -2.48923,1.91059 -3.86306,2.32557 -1.64823,0.49787 -2.74699,-0.24901 -4.19681,-0.192 -1.62141,0.0638 -2.25405,0.53629 -3.77768,0.27345 -2.30851,-0.39825 -4.39507,-2.58254 -5.47179,-3.73602 -0.97312,-1.0425 -2.82812,-4.30202 -3.43688,-5.56813 -0.60877,-1.26612 -1.01074,-6.67035 -0.38685,-8.21754 0.61362,-1.52172 1.61701,-3.76129 2.45837,-4.48658 0.84135,-0.72529 2.86203,-1.96395 3.95049,-2.17015 1.08846,-0.2062 2.60831,-0.12901 3.87861,0.3437 1.60449,0.59706 1.28822,1.62002 2.929,1.62002 1.64078,0 2.78893,-1.71886 4.492,-1.82883 1.64051,-0.10593 2.33828,-0.3106 4.73128,0.91658 1.32679,0.6804 3.23701,3.29349 3.85982,4.76606 0.62282,1.47256 0.77489,3.47436 0.25549,6.19463 z"
       sodipodi:nodetypes="sssssssssssssssss" /><path
       id="path4-5"
       style="fill:#ff4900;fill-opacity:1;stroke-width:1.66576"
       d="m 95.676325,165.95581 c -0.25161,1.31777 -0.971527,2.67522 -1.535653,3.73931 -0.564127,1.06409 -1.260596,1.9789 -2.041594,2.69951 -0.780993,0.72061 -1.64231,1.26054 -2.548717,1.53433 -1.087447,0.32848 -1.812371,-0.16429 -2.768914,-0.12668 -1.069751,0.0421 -1.487145,0.35383 -2.492385,0.18042 -1.523077,-0.26275 -2.899719,-1.70387 -3.610102,-2.4649 -0.642032,-0.68781 -1.865898,-2.83833 -2.267538,-3.67366 -0.401646,-0.83535 -0.666852,-4.40088 -0.25523,-5.42166 0.404846,-1.00398 1.066848,-2.48157 1.621949,-2.96009 0.555094,-0.47852 1.888271,-1.29576 2.6064,-1.4318 0.718129,-0.13604 1.720875,-0.0851 2.558976,0.22676 1.058588,0.39392 0.849924,1.06884 1.932455,1.06884 1.082531,0 1.840042,-1.13405 2.96367,-1.2066 1.082354,-0.0699 1.542719,-0.20492 3.121538,0.60473 0.875372,0.44891 2.135671,2.17294 2.54658,3.14449 0.410916,0.97154 0.511247,2.29226 0.168565,4.087 z"
       sodipodi:nodetypes="sssssssssssssssss" /><path
       id="rect5"
       style="opacity:1;fill:#7c4900;stroke-width:3.41699"
       d="m 126.08276,145.93483 c 0.63544,0 1.14701,0.51157 1.14701,1.14701 v 2.82341 c 0,0.63544 -0.51157,1.147 -1.14701,1.147 -0.63544,0 -1.14701,-0.51156 -1.14701,-1.147 v -2.82341 c 0,-0.63544 0.51157,-1.14701 1.14701,-1.14701 z" /><path
       id="rect5-5"
       style="fill:#a44900;stroke-width:3.41699"
       d="m 87.032477,153.01839 c 0.635443,0 1.147009,0.51156 1.147009,1.14701 v 2.8234 c 0,0.63545 -0.511566,1.14701 -1.147009,1.14701 -0.635443,0 -1.147009,-0.51156 -1.147009,-1.14701 v -2.8234 c 0,-0.63545 0.511566,-1.14701 1.147009,-1.14701 z" /><path
       id="rect6"
       style="opacity:1;fill:#004900;fill-opacity:1;stroke:none;stroke-width:3.99722;stroke-opacity:1"
       d="m 130.0528,145.80231 c 0,0 1.86066,-1.43139 2.90983,-2.01542 1.01969,-0.56761 3.23594,-1.4168 3.23594,-1.4168 0.80797,-0.35361 5.25045,-0.74003 6.09937,-0.81486 l 3.07372,-0.27091 c 0.84889,-0.0748 -0.40745,0.86087 0.11465,0.50476 0,0 -2.61593,2.64504 -4.95831,4.42465 -0.95875,0.7284 -3.26504,1.77951 -3.26504,1.77951 -3.80536,2.07361 -6.50946,0.0831 -8.71379,1.92685 l -1.01853,0.85191 c -0.64411,0.53875 0.60645,-2.82555 2.52238,-4.96955 5e-5,-7e-5 -1.3e-4,-1.7e-4 -1.3e-4,-1.7e-4 z"
       sodipodi:nodetypes="sassssssssss" /><path
       id="rect6-6"
       style="fill:#004900;fill-opacity:1;stroke-width:2.03224"
       d="m 89.049828,155.31274 c 0,0 0.579617,-0.86972 0.947269,-1.23626 0.357327,-0.35624 1.204309,-0.91704 1.204309,-0.91704 0.300696,-0.22894 2.239245,-0.62259 2.609508,-0.69833 l 1.340619,-0.2743 c 0.370257,-0.0757 -0.02675,0.49438 0.14418,0.27565 0,0 -0.69914,1.57398 -1.432915,2.65644 -0.300343,0.44305 -1.151101,1.1196 -1.151101,1.1196 -1.341661,1.30466 -2.928897,0.30855 -3.588508,1.42104 l -0.304772,0.51403 c -0.192737,0.32509 -0.242739,-1.59319 0.231477,-2.86078 1.4e-5,-4e-5 -8.1e-5,-8e-5 -8.1e-5,-8e-5 z"
       sodipodi:nodetypes="sassssssssss" /><path
       id="rect6-6-5"
       style="fill:#004900;fill-opacity:1;stroke-width:2.03224"
       d="m 84.886612,154.98416 c 0,0 -0.57962,-0.86972 -0.94727,-1.23626 -0.35732,-0.35624 -1.20431,-0.91704 -1.20431,-0.91704 -0.30069,-0.22894 -2.23924,-0.62259 -2.6095,-0.69833 l -1.34062,-0.2743 c -0.37026,-0.0757 0.0267,0.49438 -0.14418,0.27565 0,0 0.69914,1.57398 1.43291,2.65644 0.30034,0.44305 1.1511,1.1196 1.1511,1.1196 1.34166,1.30466 2.9289,0.30855 3.58851,1.42104 l 0.30477,0.51403 c 0.19274,0.32509 0.24274,-1.59319 -0.23147,-2.86078 -2e-5,-4e-5 8e-5,-8e-5 8e-5,-8e-5 z"
       sodipodi:nodetypes="sassssssssss" /><path
       id="path1"
       style="fill:#000000;fill-opacity:1;stroke-width:3.41699"
       d="m 72.79095,167.81624 c 2.532846,7.67279 9.59088,6.80619 6.617359,7.3232 -9.077919,1.57841 -12.79218,-6.76595 -12.970025,-10.14661 -0.406138,-7.72031 2.372339,-13.30265 4.764499,-12.3524 5.931687,2.35627 -1.932415,4.51086 1.588167,15.17581 z"
       sodipodi:nodetypes="sssss" /><path
       id="path1-2"
       style="fill:#000000;fill-opacity:1;stroke-width:3.41699;stroke:none;stroke-opacity:1"
       d="m 117.98749,129.11662 c -5.06994,5.93138 -6.01061,7.81335 -6.24726,7.46601 -2.4142,-3.54335 1.89726,-12.24784 4.81903,-13.95773 2.7514,-1.61019 7.09532,-1.51103 7.30213,-1.38408 0.22388,0.13744 0.45011,0.47725 -5.8739,7.8758 z"
       sodipodi:nodetypes="sssss" /><path
       id="rect4"
       style="fill-opacity:1;stroke-width:4.74344;fill:#007b00"
       d="m 51.615403,123.08288 c 0,0 18.22229,-5.36568 29.259648,-1.85286 10.709664,3.40853 15.659865,15.55387 15.264043,15.61697 -19.424548,3.09668 -34.92306,-9.2643 -34.92306,-9.2643 0,0 6.33963,14.37003 29.389375,13.98468 -3.277589,1.77366 -16.152365,3.16685 -23.461269,-0.22056 -7.250235,-3.36022 -15.21715,-12.32311 -15.528737,-18.26393 z"
       sodipodi:nodetypes="sssccss" /><path
       id="rect4-4"
       style="fill:#007b00;fill-opacity:1;stroke-width:3.19638"
       d="m 75.814284,86.538954 c 0,0 10.831524,6.821164 13.973445,13.966006 3.048635,6.9327 -0.885583,14.84658 -1.093841,14.6746 -10.220156,-8.43991 -10.876776,-21.782313 -10.876776,-21.782313 0,0 -4.43979,9.607483 6.024937,21.088073 -2.356978,-0.86665 -8.797692,-6.75446 -10.34178,-11.95859 -1.531695,-5.162348 -0.550405,-13.1833 2.314015,-15.987776 z"
       sodipodi:nodetypes="sssccss" /><path
       id="rect4-4-2"
       style="fill:#007b00;fill-opacity:1;stroke-width:2.83828"
       d="m 105.3393,71.397928 c 0,0 6.18989,9.533019 6.06096,16.462537 -0.12509,6.72376 -6.24424,11.637269 -6.34805,11.421065 -5.094094,-10.610079 -0.65327,-21.609379 -0.65327,-21.609379 0,0 -7.157537,6.090315 -2.99896,19.242458 -1.577022,-1.576553 -4.575358,-8.721646 -3.881417,-13.491639 0.688364,-4.731695 4.467177,-10.831489 7.820737,-12.025042 z"
       sodipodi:nodetypes="sssccss" /><path
       id="rect4-4-2-6"
       style="fill:#007b00;fill-opacity:1;stroke-width:3.67209"
       d="m 138.82886,84.680695 c 0,0 -0.0879,14.463569 -5.23582,21.318715 -4.99501,6.65159 -15.2663,6.74786 -15.22414,6.44874 2.06973,-14.67876 14.8942,-22.211594 14.8942,-22.211594 0,0 -12.2621,0.456965 -17.19597,16.948434 -0.59328,-2.82935 1.27524,-12.372801 5.48359,-16.613234 4.17456,-4.206387 12.73217,-7.343522 17.27814,-5.891061 z"
       sodipodi:nodetypes="sssccss" /><path
       id="rect4-4-2-6-9"
       style="fill:#007b00;fill-opacity:1;stroke-width:2.62716"
       d="m 153.32572,110.06787 c 0,0 -0.83435,10.31432 -4.87282,14.93048 -3.91853,4.47908 -11.2517,3.9998 -11.20567,3.78864 2.25975,-10.36211 11.81121,-15.05223 11.81121,-15.05223 0,0 -8.77274,-0.32814 -13.17262,11.17444 -0.27236,-2.05024 1.5699,-8.75931 4.79857,-11.56013 3.20273,-2.77833 9.47551,-4.55998 12.64133,-3.2812 z"
       sodipodi:nodetypes="sssccss" /><path
       style="fill:#ff6605;stroke:none;stroke-width:0.529167;fill-opacity:1;stroke-opacity:1"
       inkscape:label="Triangle"
       d="m 111.79481,147.37736 c 0,0 23.2715,-5.074 25.84071,-13.05826 1.13877,-3.53892 -4.08821,-9.44846 -7.58236,-8.17893 -10.98111,3.98976 -18.25835,21.23719 -18.25835,21.23719 z"
       id="path6"
       sodipodi:nodetypes="cssc" /></g></svg>
