<?xml version="1.0" encoding="UTF-8" standalone="no"?>
<!-- Created with Inkscape (http://www.inkscape.org/) -->

<svg
   width="176.41837mm"
   height="23.626928mm"
   viewBox="0 0 176.41837 23.626928"
   version="1.1"
   id="svg1"
   xml:space="preserve"
   inkscape:version="1.3 (0e150ed6c4, 2023-07-21)"
   sodipodi:docname="EMPRESAlettering.svg"
   inkscape:export-filename="EMPRESAletteringblanco.png"
   inkscape:export-xdpi="96"
   inkscape:export-ydpi="96"
   xmlns:inkscape="http://www.inkscape.org/namespaces/inkscape"
   xmlns:sodipodi="http://sodipodi.sourceforge.net/DTD/sodipodi-0.dtd"
   xmlns="http://www.w3.org/2000/svg"
   xmlns:svg="http://www.w3.org/2000/svg"><sodipodi:namedview
     id="namedview1"
     pagecolor="#ffffff"
     bordercolor="#000000"
     borderopacity="0.25"
     inkscape:showpageshadow="2"
     inkscape:pageopacity="0.0"
     inkscape:pagecheckerboard="0"
     inkscape:deskcolor="#d1d1d1"
     inkscape:document-units="mm"
     inkscape:zoom="1.0602152"
     inkscape:cx="326.34884"
     inkscape:cy="83.473619"
     inkscape:window-width="1920"
     inkscape:window-height="1009"
     inkscape:window-x="-8"
     inkscape:window-y="-8"
     inkscape:window-maximized="1"
     inkscape:current-layer="layer1" /><defs
     id="defs1" /><g
     inkscape:label="Capa 1"
     inkscape:groupmode="layer"
     id="layer1"
     transform="translate(-16.790829,-136.68651)"><path
       style="font-weight:bold;font-size:28.9229px;line-height:1.6;font-family:'Segoe Script';-inkscape-font-specification:'Segoe Script, Bold';text-align:center;text-anchor:middle;opacity:0.986275;fill:#ffffff;fill-opacity:1;stroke-width:2.56485"
       d="m 35.658482,140.92327 q 0,0.48016 -0.155348,1.10155 -0.141225,0.60727 -0.466043,1.07332 -0.33894,0.49428 -0.776738,0.79086 -0.423675,0.28245 -0.932085,0.28245 -0.536656,0 -0.819106,-0.35307 -0.28245,-0.35306 -0.28245,-0.98857 0,-0.22596 0.04237,-0.46605 0.04237,-0.24008 0.08474,-0.48016 0.04237,-0.24008 0.08474,-0.46604 0.04237,-0.24009 0.04237,-0.45192 0,-0.32482 -0.08473,-0.52254 -0.07061,-0.19771 -0.197715,-0.29657 -0.11298,-0.11298 -0.268328,-0.14122 -0.155347,-0.0424 -0.310695,-0.0424 -0.706125,0 -1.609966,0.22596 -0.889718,0.21184 -1.821804,0.60727 -0.917963,0.39543 -1.807681,0.9462 -0.875596,0.53666 -1.553476,1.17217 -1.129801,1.07331 -1.977151,2.27373 -0.847351,1.20041 -1.412251,2.45731 -0.550778,1.25691 -0.833228,2.55618 -0.28245,1.29927 -0.28245,2.58442 0,1.04506 0.28245,1.90654 0.296572,0.84735 0.84735,1.45461 0.564901,0.59315 1.369884,0.91797 0.819105,0.32481 1.864171,0.32481 0.663758,0 1.426373,-0.18359 0.762616,-0.19771 1.511109,-0.48016 0.748493,-0.29658 1.412251,-0.64964 0.67788,-0.36718 1.143923,-0.70612 0.494288,-0.35307 0.946208,-0.66376 0.451921,-0.32482 0.748493,-0.32482 0.579023,0 0.762616,0.28245 0.183592,0.26833 0.183592,0.692 0,0.15535 -0.211837,0.46605 -0.211838,0.31069 -0.550778,0.67788 -0.324818,0.36718 -0.734371,0.76261 -0.409552,0.38131 -0.79086,0.67788 -0.663758,0.50841 -1.482864,0.94621 -0.804983,0.4378 -1.680578,0.74849 -0.861473,0.32482 -1.751191,0.49429 -0.875596,0.18359 -1.694702,0.18359 -1.666456,0 -2.993972,-0.49428 -1.313393,-0.49429 -2.231356,-1.42638 -0.917963,-0.93208 -1.412251,-2.2596 -0.494288,-1.34164 -0.494288,-3.03634 0,-2.9516 1.214536,-5.87496 1.214536,-2.93748 3.77071,-5.62076 0.73437,-0.76262 1.793559,-1.53935 1.059188,-0.79086 2.330214,-1.42638 1.285148,-0.63551 2.711522,-1.03094 1.426373,-0.40955 2.880991,-0.40955 1.186291,0 1.991274,0.2542 0.804983,0.25421 1.285149,0.74849 0.480165,0.48017 0.67788,1.17217 0.211838,0.67788 0.211838,1.55348 z m 10.606004,9.43384 q 0.466042,-0.0706 1.002698,-0.14123 0.536655,-0.0706 1.045066,-0.15535 0.50841,-0.0847 0.946208,-0.16947 0.437797,-0.0989 0.73437,-0.19771 -0.05649,-0.25421 -0.127102,-0.55078 -0.07061,-0.3107 -0.141226,-0.60727 -0.07061,-0.31069 -0.141225,-0.57902 -0.05649,-0.28245 -0.09886,-0.48017 -0.254205,-1.32751 -0.480166,-2.89511 -0.22596,-1.5676 -0.33894,-3.09283 -0.268327,0.42367 -0.5649,0.94621 -0.28245,0.52253 -0.579023,1.05919 -0.296573,0.52253 -0.593145,1.04506 -0.296573,0.50841 -0.564901,0.91796 -0.381308,0.57903 -0.819105,1.22866 -0.423676,0.63552 -0.861473,1.3134 -0.423676,0.66375 -0.847351,1.32751 -0.409553,0.66376 -0.762615,1.29927 0.776738,-0.0424 1.581721,-0.11298 0.804983,-0.0706 1.624088,-0.15534 z m 11.919398,6.63757 q 0,0.32482 -0.127103,0.64964 -0.127103,0.3107 -0.367185,0.5649 -0.22596,0.25421 -0.536656,0.40955 -0.310695,0.15535 -0.67788,0.15535 -0.536655,0 -1.073311,-0.35306 -0.536655,-0.35306 -1.059188,-0.91796 -0.522533,-0.57903 -1.016821,-1.28515 -0.480165,-0.70613 -0.917963,-1.41225 -0.437798,-0.70613 -0.804983,-1.32752 -0.367185,-0.63551 -0.635513,-1.04507 -0.45192,0.0283 -1.285148,0.12711 -0.833228,0.0989 -1.835926,0.24008 -1.002698,0.1271 -2.090132,0.28245 -1.07331,0.14122 -2.033641,0.29657 -0.960331,0.14123 -1.708824,0.26833 -0.73437,0.1271 -1.045065,0.21184 -0.607268,0.77674 -1.242781,1.63821 -0.635513,0.84735 -1.313394,1.76531 -0.16947,0.25421 -0.381307,0.52254 -0.211838,0.26832 -0.480166,0.49428 -0.268327,0.21184 -0.607268,0.35307 -0.324817,0.14122 -0.73437,0.14122 -0.240083,0 -0.550778,-0.18359 -0.296573,-0.16947 -0.5649,-0.42368 -0.254205,-0.2542 -0.437798,-0.53665 -0.183593,-0.29658 -0.183593,-0.52254 0,-0.15534 0.240083,-0.59314 0.240083,-0.45192 0.607268,-0.96033 0.02824,-0.0424 0.310695,-0.39543 0.28245,-0.36719 0.692003,-0.90384 0.423675,-0.53666 0.903841,-1.15805 0.480165,-0.62139 0.90384,-1.15804 0.423676,-0.53666 0.706126,-0.90384 0.296572,-0.38131 0.33894,-0.42368 1.228658,-1.55348 2.386704,-3.2623 1.158046,-1.72295 2.245479,-3.40352 0.197715,-0.3107 0.367185,-0.5649 0.16947,-0.25421 0.353063,-0.50841 0.183593,-0.25421 0.381308,-0.53666 0.211837,-0.28245 0.480165,-0.64964 0.494288,-0.66375 0.960331,-1.36988 0.466043,-0.70612 0.833228,-1.51111 0.324818,-0.72025 0.889718,-1.08743 0.5649,-0.38131 1.454618,-0.38131 0.423676,0 0.720248,0.35306 0.296573,0.35307 0.522533,0.94621 0.22596,0.59315 0.39543,1.38401 0.169471,0.77674 0.324818,1.65233 0.155348,0.86148 0.310695,1.76532 0.16947,0.90384 0.381308,1.73706 0.240083,0.94621 0.522533,1.92067 0.296573,0.97445 0.649635,1.8218 0.635513,-0.11298 1.059189,-0.19772 0.423675,-0.0988 0.776738,-0.0988 0.579023,0 0.917963,0.0282 0.33894,0.0283 0.522533,0.14123 0.197715,0.0988 0.254205,0.31069 0.05649,0.19772 0.05649,0.53666 0,0.38131 -0.22596,0.67788 -0.211838,0.29657 -0.579023,0.52253 -0.353063,0.22596 -0.804983,0.38131 -0.451921,0.15535 -0.917963,0.2542 0.127102,0.25421 0.211837,0.45192 0.09886,0.1836 0.183593,0.36719 0.08473,0.16947 0.16947,0.35306 0.08474,0.18359 0.211838,0.40955 0.28245,0.50841 0.593145,1.0027 0.324818,0.48017 0.649635,0.84735 0.08473,0.0847 0.240083,0.24009 0.16947,0.15534 0.353063,0.35306 0.197715,0.19771 0.39543,0.42367 0.211838,0.21184 0.381308,0.42368 0.16947,0.19771 0.268328,0.38131 0.11298,0.16947 0.11298,0.26832 z m 19.757392,-4.05316 q 0,0.81911 -0.409553,1.55348 -0.39543,0.72025 -1.087433,1.35576 -0.692003,0.62139 -1.609966,1.15805 -0.917963,0.52253 -1.948907,0.94621 -1.01682,0.42367 -2.104253,0.74849 -1.073311,0.32482 -2.090132,0.53665 -1.002698,0.21184 -1.892416,0.32482 -0.875596,0.11298 -1.511109,0.11298 -0.141225,0 -0.367185,-0.0141 -0.22596,-0.0141 -0.466043,-0.0424 -0.240082,-0.0282 -0.466043,-0.0565 -0.211837,-0.0282 -0.353062,-0.0565 -0.268328,-0.0565 -0.663758,-0.16947 -0.381308,-0.0989 -0.804983,-0.2542 -0.409553,-0.14123 -0.819106,-0.33894 -0.409553,-0.1836 -0.73437,-0.39543 -0.324818,-0.22596 -0.522533,-0.46605 -0.197715,-0.2542 -0.197715,-0.52253 0,-0.0847 0.07061,-0.29657 0.07061,-0.22596 0.183593,-0.45192 0.11298,-0.24009 0.254205,-0.40956 0.155348,-0.18359 0.296573,-0.18359 0.268327,0 0.706125,0.15535 0.451921,0.14122 0.988576,0.31069 0.550778,0.16947 1.143923,0.32482 0.607268,0.14123 1.186291,0.14123 0.720248,0 1.539354,-0.0989 0.833228,-0.0989 1.708823,-0.26833 0.875596,-0.18359 1.751191,-0.4378 0.875596,-0.26832 1.680579,-0.59314 0.804983,-0.32482 1.496986,-0.70613 0.692003,-0.3813 1.200413,-0.8191 0.07061,-0.0706 0.155348,-0.18359 0.08473,-0.11298 0.16947,-0.24009 0.08473,-0.1271 0.141225,-0.2542 0.05649,-0.12711 0.05649,-0.21184 0,-0.53666 -0.367185,-0.94621 -0.367185,-0.42367 -1.059188,-0.77674 -0.692003,-0.35306 -1.666456,-0.67788 -0.974454,-0.33894 -2.188989,-0.70612 -0.833229,-0.25421 -1.708824,-0.55078 -0.875596,-0.29657 -1.708824,-0.66376 -0.833228,-0.38131 -1.567598,-0.86147 -0.734371,-0.48017 -1.285149,-1.10156 -0.550777,-0.62139 -0.875595,-1.39813 -0.324818,-0.79086 -0.324818,-1.79355 0,-0.59315 0.296573,-1.1298 0.296572,-0.53666 0.776738,-1.01683 0.494288,-0.49428 1.115678,-0.90384 0.62139,-0.40955 1.256903,-0.73437 0.635513,-0.33894 1.228659,-0.5649 0.593145,-0.24008 1.030943,-0.35306 0.649635,-0.16947 1.214536,-0.29657 0.5649,-0.12711 1.115678,-0.21184 0.5649,-0.0847 1.143923,-0.1271 0.593146,-0.0424 1.271026,-0.0424 0.254205,0 0.706126,0.0282 0.466042,0.0141 1.002698,0.0847 0.550778,0.0565 1.115678,0.18359 0.579023,0.12711 1.045066,0.33894 0.466042,0.21184 0.762615,0.52254 0.296573,0.31069 0.296573,0.73437 0,0.42367 -0.240083,0.90384 -0.22596,0.46604 -0.593145,0.91796 -0.353063,0.4378 -0.790861,0.81911 -0.437798,0.3813 -0.861473,0.64963 -0.423675,0.26833 -0.776738,0.38131 -0.33894,0.11298 -0.522533,0 -0.22596,-0.14123 -0.28245,-0.40955 -0.05649,-0.26833 0,-0.59315 0.07061,-0.32482 0.211838,-0.67788 0.141225,-0.36719 0.296572,-0.67788 -0.183592,-0.11298 -0.536655,-0.19772 -0.353063,-0.0988 -0.762615,-0.15534 -0.409553,-0.0706 -0.819106,-0.0989 -0.39543,-0.0282 -0.67788,-0.0282 -0.381308,0 -0.932086,0.0847 -0.550778,0.0706 -1.172168,0.22596 -0.607268,0.15535 -1.214536,0.39543 -0.607268,0.22596 -1.101556,0.55078 -0.480165,0.32482 -0.79086,0.73437 -0.296573,0.40955 -0.296573,0.91796 0,0.49429 0.522533,0.97445 0.536655,0.48017 1.355761,0.93209 0.833228,0.45192 1.850048,0.86147 1.016821,0.40956 1.977152,0.76262 0.974453,0.33894 1.779436,0.60727 0.819105,0.26832 1.242781,0.45192 0.861473,0.36718 1.567598,0.73437 0.706126,0.35306 1.200414,0.84735 0.50841,0.48016 0.776738,1.15804 0.28245,0.67788 0.28245,1.6947 z m 14.842756,-2.92335 q 0.62139,-0.15535 1.256903,-0.32482 0.649635,-0.16947 1.200413,-0.33894 -0.22596,-0.69201 -0.466043,-1.4405 -0.240082,-0.74849 -0.50841,-1.48286 -0.254205,-0.7485 -0.522533,-1.4405 -0.268327,-0.70612 -0.5649,-1.28515 -1.200413,1.63821 -2.414949,3.4459 -1.200414,1.80768 -2.287847,3.68597 0.423675,-0.0424 0.889718,-0.0565 0.466043,-0.0282 0.748493,-0.11298 0.381308,-0.11298 0.677881,-0.19771 0.310695,-0.0847 0.607268,-0.15535 0.310695,-0.0706 0.635513,-0.14123 0.324817,-0.0706 0.748493,-0.15534 z m 9.433838,7.11774 q 0,0.35306 -0.14123,0.66376 -0.1271,0.31069 -0.36718,0.55078 -0.22596,0.22596 -0.5649,0.36718 -0.32482,0.14123 -0.70613,0.14123 -0.35306,0 -0.692001,-0.22596 -0.338941,-0.22596 -0.663758,-0.57903 -0.310695,-0.35306 -0.607268,-0.79086 -0.28245,-0.45192 -0.522533,-0.90384 -0.22596,-0.45192 -0.409553,-0.86147 -0.183592,-0.40955 -0.296572,-0.67788 -0.155348,-0.38131 -0.310696,-0.70613 -0.155347,-0.32481 -0.324817,-0.83323 -0.09886,-0.28245 -0.155348,-0.42367 -0.04237,-0.14123 -0.08473,-0.21184 -0.02824,-0.0847 -0.05649,-0.1271 -0.01412,-0.0565 -0.04237,-0.15535 -0.28245,0.1271 -0.607268,0.15535 -0.324817,0.0141 -0.720248,0.0141 -0.07061,0 -0.240082,0.0565 -0.16947,0.0424 -0.39543,0.11298 -0.211838,0.0706 -0.451921,0.15535 -0.22596,0.0706 -0.437798,0.1271 -0.67788,0.16947 -1.46874,0.32482 -0.790861,0.15535 -1.652334,0.31069 -0.861473,0.14123 -1.765314,0.29658 -0.889718,0.14122 -1.793558,0.29657 -0.09886,0.0141 -0.169471,0.0565 -0.07061,0.0424 -0.197715,0.22596 -0.127102,0.16947 -0.381307,0.53666 -0.254206,0.36718 -0.720248,1.04506 -0.536656,0.77674 -1.016821,1.35576 -0.480165,0.5649 -0.903841,0.97446 -0.409552,0.40955 -0.875595,0.62139 -0.451921,0.21183 -0.946208,0.21183 -0.649636,0 -1.158046,-0.16947 -0.508411,-0.15534 -0.861473,-0.40955 -0.33894,-0.2542 -0.522533,-0.55078 -0.16947,-0.29657 -0.16947,-0.55077 0,-0.48017 0.409553,-0.66376 0.409552,-0.19772 1.1298,-0.32482 0,-0.0141 0.155348,-0.21184 0.155347,-0.19771 0.367185,-0.45192 0.211838,-0.2542 0.409553,-0.49429 0.211838,-0.2542 0.296573,-0.3813 0.550777,-0.76262 1.143923,-1.58173 0.607268,-0.83322 1.327516,-1.90653 v 0.0141 q 0.367185,-0.53666 0.593145,-0.88972 0.240083,-0.35306 0.45192,-0.66376 0.211838,-0.31069 0.437798,-0.63551 0.240083,-0.32482 0.579023,-0.80498 0.875596,-1.22866 1.525231,-2.07601 0.663758,-0.86148 1.087433,-1.42638 0.508411,-0.79086 0.960331,-1.5111 0.197715,-0.3107 0.381308,-0.62139 0.183592,-0.32482 0.353062,-0.6214 0.169471,-0.29657 0.296573,-0.55077 0.141225,-0.26833 0.211838,-0.45192 1.680578,-4.10965 2.880992,-4.10965 0.522533,0 0.84735,0.0847 0.324818,0.0706 0.494288,0.26833 0.183593,0.18359 0.240083,0.49429 0.07061,0.31069 0.07061,0.77674 0,0.43779 0,0.692 0,0.24008 -0.01412,0.42367 -0.01412,0.1836 -0.02824,0.36719 0,0.18359 -0.02824,0.49429 0.33894,0.72024 0.649635,1.48286 0.324818,0.76262 0.607268,1.51111 0.05649,0.16947 0.240083,0.72025 0.197715,0.53665 0.45192,1.27102 0.268328,0.73437 0.550778,1.55348 0.296573,0.8191 0.536655,1.53935 0.254205,0.72025 0.437798,1.24278 0.183593,0.52254 0.240083,0.66376 0.183592,0.79086 1.030941,2.61266 0.11298,0.22596 0.18359,0.39544 0.0847,0.16947 0.18359,0.35306 0.11298,0.18359 0.28245,0.42367 0.16947,0.24009 0.45192,0.62139 0.97446,1.32752 0.97446,1.94891 z m 19.75739,-17.65314 q 0,0.3107 -0.18359,0.60727 -0.1836,0.29657 -0.48017,0.52253 -0.28245,0.22596 -0.62139,0.36719 -0.33894,0.1271 -0.64963,0.1271 -0.26833,0 -0.64964,0 -0.36718,-0.0141 -0.73437,-0.0141 -0.35306,0 -0.66376,0 -0.31069,-0.0141 -0.46604,-0.0141 -0.3107,0 -0.74849,0.0141 -0.42368,0.0141 -0.88972,0.0282 -0.46604,0.0141 -0.91797,0.0424 -0.45192,0.0141 -0.77673,0.0424 -1.32752,0.0847 -2.1325,0.22596 -0.80499,0.14122 -1.29927,0.39543 0,0.76262 -0.12711,1.59584 -0.1271,0.83323 -0.28245,1.58172 -0.11298,0.55078 -0.19771,1.17217 -0.0847,0.60727 -0.1271,1.18629 0.26832,0.0282 0.60726,0.0424 0.35307,0.0141 0.72025,0.0141 0.46605,0 0.91797,0 0.45192,-0.0141 0.79086,-0.0282 0.15534,0 0.5649,-0.0141 0.42367,-0.0283 0.96033,-0.0424 0.53665,-0.0283 1.14392,-0.0565 0.60727,-0.0283 1.14392,-0.0565 0.55078,-0.0283 0.97446,-0.0424 0.42367,-0.0141 0.59314,-0.0141 0.26833,0 0.53666,0.0141 0.26833,0.0141 0.49429,0.0424 0.24008,0.0141 0.40955,0.0424 0.16947,0.0141 0.2542,0.0424 0.3107,0.0847 0.53666,0.28245 0.22596,0.1836 0.22596,0.60727 0,0.38131 -0.11298,0.64964 -0.11298,0.26832 -0.3107,0.46604 -0.18359,0.18359 -0.43779,0.32482 -0.24009,0.14122 -0.49429,0.2542 -0.4378,0.19772 -1.05919,0.28245 -0.60727,0.0847 -1.39813,0.0847 -0.49429,0 -1.11568,0.0565 -0.62139,0.0565 -1.21453,0.0565 -0.62139,0 -1.34164,0.0282 -0.70613,0.0282 -1.41225,0.0706 -0.69201,0.0424 -1.3134,0.0706 -0.62139,0.0282 -1.05918,0.0282 -0.38131,1.55348 -0.50841,3.29055 -0.12711,1.73707 -0.12711,3.41764 v 0.3107 q -0.19771,0.52253 -0.59314,0.84735 -0.38131,0.3107 -0.93209,0.3107 -0.64963,0 -1.04506,-0.15535 -0.38131,-0.15535 -0.59315,-0.45192 -0.19771,-0.3107 -0.26833,-0.77674 -0.0565,-0.48017 -0.0565,-1.11568 0.0282,-0.5649 0.0565,-1.08743 0.0282,-0.53666 0.0989,-1.07331 0.0847,-0.69201 0.22596,-1.51111 0.14123,-0.83323 0.29657,-1.70882 0.15535,-0.8756 0.3107,-1.7512 0.15535,-0.87559 0.26833,-1.66645 0.0141,-0.0706 0.0706,-0.49429 0.0565,-0.4378 0.14122,-1.04507 0.0847,-0.62139 0.16947,-1.32751 0.0989,-0.70613 0.1836,-1.31339 0.0847,-0.60727 0.14122,-1.01683 0.0565,-0.42367 0.0706,-0.46604 -0.19771,-0.0565 -0.36718,-0.21184 -0.15535,-0.15534 -0.26833,-0.35306 -0.0989,-0.21184 -0.15535,-0.4378 -0.0565,-0.24008 -0.0565,-0.45192 0,-0.90384 0.45192,-1.35576 0.45193,-0.45192 1.21454,-0.45192 0.67788,0 1.34164,-0.0282 0.67788,-0.0283 1.1298,-0.0283 0.52253,0 0.86147,0 0.33894,-0.0141 0.60727,-0.0282 0.28245,-0.0283 0.5649,-0.0565 0.28245,-0.0283 0.692,-0.0847 h -0.0141 q 0.14123,-0.0141 0.29657,-0.0282 0.16947,-0.0141 0.35307,-0.0424 1.51111,-0.19772 2.97985,-0.26833 1.48286,-0.0706 2.86687,-0.0706 0.32481,0 0.66375,0.0989 0.35307,0.0988 0.63552,0.31069 0.28245,0.19772 0.45192,0.49429 0.18359,0.29657 0.18359,0.692 z m 21.73454,4.53333 q 0,1.53935 -0.38131,2.93748 -0.38131,1.39813 -1.04507,2.65503 -0.66376,1.24278 -1.55347,2.35846 -0.88972,1.10156 -1.90654,2.06189 -1.01682,0.94621 -2.11838,1.73707 -1.10155,0.79086 -2.17487,1.41225 -0.55077,0.31069 -1.35576,0.64963 -0.80498,0.33894 -1.68057,0.60727 -0.86148,0.28245 -1.70883,0.46604 -0.83323,0.1836 -1.44049,0.1836 -1.24279,0 -2.25961,-0.55078 -1.01682,-0.53666 -1.73706,-1.45462 -0.70613,-0.93209 -1.10156,-2.14662 -0.38131,-1.22866 -0.38131,-2.58442 0,-0.692 0.0706,-1.29927 0.0847,-0.60727 0.22596,-1.17217 0.14123,-0.57902 0.33894,-1.14392 0.21184,-0.57903 0.48017,-1.20042 0.32482,-0.73437 0.83323,-1.55347 0.52253,-0.83323 1.17217,-1.66646 0.64963,-0.83323 1.384,-1.63821 0.7485,-0.80498 1.49699,-1.51111 0.76261,-0.70612 1.51111,-1.27102 0.74849,-0.5649 1.41225,-0.90384 0.26833,-0.14123 0.60727,-0.26833 0.35306,-0.12711 0.692,-0.22596 0.35306,-0.0989 0.67788,-0.15535 0.32482,-0.0565 0.55078,-0.0565 0.53665,-0.692 1.28515,-0.96033 0.74849,-0.26833 1.59584,-0.26833 0.96033,0 1.83593,0.3107 0.88971,0.29657 1.65233,0.86147 0.76261,0.55078 1.36988,1.34164 0.62139,0.77674 1.04507,1.73707 0.26833,0.62139 0.4378,1.31339 0.16947,0.692 0.16947,1.39813 z m -6.45399,-4.19439 q -0.22596,0 -0.36719,0.28245 -0.14122,0.28245 -0.32481,0.62139 -0.1836,0.33894 -0.46605,0.62139 -0.28245,0.28245 -0.79086,0.28245 -0.31069,0 -0.46604,-0.0282 -0.15535,-0.0282 -0.26833,-0.0565 -0.11298,-0.0282 -0.24008,-0.0565 -0.11298,-0.0282 -0.35306,-0.0282 -0.53666,0 -1.22866,0.40956 -0.67788,0.39543 -1.41225,1.04506 -0.72025,0.63552 -1.45462,1.45462 -0.72025,0.81911 -1.34164,1.66646 -0.62139,0.83323 -1.10155,1.62409 -0.48017,0.77673 -0.70613,1.35576 -0.28245,0.73437 -0.48017,1.55347 -0.18359,0.80499 -0.18359,1.63821 0,0.62139 0.22596,1.24278 0.22596,0.60727 0.59315,1.10156 0.3813,0.48017 0.84735,0.79086 0.48016,0.29657 0.98857,0.29657 0.79086,0 1.70883,-0.2542 0.91796,-0.26833 1.87829,-0.72025 0.97445,-0.45192 1.94891,-1.05919 0.97445,-0.62139 1.86417,-1.32751 0.88972,-0.70613 1.65233,-1.45462 0.76262,-0.76262 1.29927,-1.51111 0.14123,-0.22596 0.3107,-0.5649 0.16947,-0.35306 0.33894,-0.76262 0.16947,-0.40955 0.32482,-0.86147 0.16947,-0.45192 0.29657,-0.86147 0.1271,-0.42368 0.19771,-0.79086 0.0847,-0.36719 0.0847,-0.62139 0,-0.5649 -0.14123,-1.14393 -0.14122,-0.59314 -0.39543,-1.15804 -0.24008,-0.5649 -0.5649,-1.05919 -0.32481,-0.49429 -0.70612,-0.86147 -0.36719,-0.36719 -0.77674,-0.57903 -0.39543,-0.22596 -0.79086,-0.22596 z m 31.01303,5.25358 q 0,2.11837 -0.74849,4.06728 -0.73437,1.93478 -2.18899,3.62948 -1.45462,1.68058 -3.61536,3.05047 -2.16075,1.36988 -4.99937,2.34433 -0.25421,0.0847 -0.59315,0.16947 -0.33894,0.0706 -0.66376,0.11298 -0.32481,0.0565 -0.60726,0.0847 -0.26833,0.0424 -0.39543,0.0424 -1.28515,0 -2.45732,-0.21184 -1.15805,-0.21184 -2.14662,-0.67788 -0.98858,-0.48017 -1.77944,-1.24278 -0.79086,-0.77674 -1.34164,-1.89242 -0.35306,-0.72025 -0.48016,-1.36988 -0.1271,-0.64964 -0.1271,-1.32752 0,-0.90384 0.28245,-2.03364 0.29657,-1.14392 0.83322,-2.37258 0.53666,-1.24278 1.28515,-2.51381 0.76262,-1.28515 1.68058,-2.47144 0.93209,-1.20041 2.0054,-2.24548 1.07331,-1.05918 2.24548,-1.83592 1.18629,-0.79086 2.42907,-1.24278 1.2569,-0.45192 2.54205,-0.45192 0.19771,0 0.48016,0.14122 0.28246,0.1271 0.60727,0.3107 0.33894,0.16947 0.67788,0.33894 0.33894,0.16947 0.64964,0.2542 0.73437,0.19772 1.49698,0.62139 0.76262,0.42368 1.46875,1.01682 0.72024,0.57903 1.34163,1.28515 0.63552,0.70613 1.10156,1.46874 0.46604,0.7485 0.73437,1.51111 0.28245,0.74849 0.28245,1.4405 z m -3.07871,0.96033 q 0,-0.46605 -0.0706,-1.04507 -0.0706,-0.57902 -0.29657,-1.18629 -0.22596,-0.60727 -0.64964,-1.21453 -0.40955,-0.60727 -1.10155,-1.12981 -0.0989,-0.0706 -0.3107,-0.21183 -0.19771,-0.15535 -0.42367,-0.29658 -0.21184,-0.14122 -0.40956,-0.24008 -0.19771,-0.11298 -0.28245,-0.11298 -0.0847,0 -0.15534,0.0282 -0.0706,0.0282 -0.19772,0.0706 -0.1271,0.0282 -0.33894,0.0565 -0.19771,0.0282 -0.53665,0.0282 -0.25421,0 -0.4378,-0.0847 -0.16947,-0.0989 -0.32482,-0.19772 -0.0989,-0.0706 -0.18359,-0.11298 -0.0847,-0.0424 -0.0847,-0.0565 -0.19771,-0.0141 -0.36718,-0.0141 -0.16947,-0.0141 -0.32482,-0.0141 -0.18359,0 -0.36719,0.0141 -0.16947,0.0141 -0.39543,0.0565 -0.21183,0.0283 -0.49428,0.0989 -0.26833,0.0565 -0.64964,0.15535 -0.4378,0.11298 -0.98858,0.50841 -0.53665,0.3813 -1.14392,0.98857 -0.59314,0.59315 -1.21453,1.35576 -0.62139,0.7485 -1.20042,1.59585 -0.57902,0.83322 -1.10155,1.72294 -0.50841,0.88972 -0.90384,1.75119 -0.38131,0.84735 -0.60727,1.62409 -0.21184,0.77674 -0.21184,1.41225 0,1.10156 0.50841,1.8783 0.50841,0.77674 1.28515,1.27102 0.79086,0.49429 1.73707,0.72025 0.96033,0.22596 1.85005,0.22596 0.87559,0 1.99127,-0.42367 1.11568,-0.4378 2.27372,-1.17217 1.15805,-0.73437 2.25961,-1.6947 1.10155,-0.97446 1.96302,-2.04777 0.86148,-1.07331 1.38401,-2.17486 0.52253,-1.11568 0.52253,-2.1325 z m 24.57317,-0.29658 q 0,-0.93208 -0.36719,-1.58172 -0.35306,-0.66375 -0.94621,-1.11567 -0.57902,-0.45192 -1.32751,-0.70613 -0.74849,-0.25421 -1.52523,-0.38131 -0.94621,-0.15535 -1.89242,-0.22596 -0.94621,-0.0847 -1.92066,-0.0847 -0.40955,0 -0.88972,0.0424 -0.46604,0.0283 -0.97445,0.0847 -0.50841,0.0424 -1.03094,0.0989 -0.50842,0.0424 -1.0027,0.0565 -0.24009,1.21453 -0.48017,2.42907 -0.22596,1.20041 -0.42367,2.24548 -0.19772,1.03094 -0.33894,1.8218 -0.14123,0.79086 -0.1836,1.15805 -0.11298,0.80498 -0.22596,1.68058 -0.0988,0.86147 -0.0988,1.58172 0,0.35306 0.0282,0.62139 0.0283,0.26833 0.0989,0.50841 1.29927,-0.22596 2.73977,-0.70613 1.44049,-0.49429 3.2058,-1.08743 0.93209,-0.3107 1.7512,-0.63551 0.83322,-0.32482 1.49698,-0.63552 0.67788,-0.32481 1.17217,-0.62139 0.50841,-0.31069 0.80498,-0.57902 0.0989,-0.0847 0.29658,-0.32482 0.21183,-0.24008 0.46604,-0.57902 0.26833,-0.33894 0.53665,-0.73437 0.28245,-0.40955 0.50841,-0.81911 0.22596,-0.42367 0.36719,-0.80498 0.15535,-0.39543 0.15535,-0.70613 z m 3.44589,0 q 0,1.80769 -1.41225,3.58712 -1.28515,1.62409 -3.3894,3.03634 -0.93209,0.63551 -2.01952,1.22866 -1.08744,0.57902 -2.16075,1.07331 -1.08743,0.49429 -2.06188,0.86147 -0.96033,0.36719 -1.79356,0.62139 -0.57902,0.1836 -1.2569,0.46605 -0.67789,0.26832 -1.5676,0.73437 -0.39543,0.21184 -0.81911,0.35306 -0.42367,0.1271 -0.80498,0.21184 -0.36719,0.0847 -0.66376,0.1271 -0.29657,0.0283 -0.42368,0.0283 -0.84735,0 -1.45461,-0.48017 -0.60727,-0.48017 -0.79086,-1.27103 -0.14123,-0.59314 -0.21184,-1.00269 -0.0565,-0.40956 -0.0565,-0.62139 0,-0.0847 0.0282,-0.24009 0.0282,-0.16947 0.0565,-0.33894 0.0282,-0.16947 0.0565,-0.33894 0.0282,-0.16947 0.0282,-0.26833 0,-0.15534 0.0141,-0.36718 0.0282,-0.21184 0.0565,-0.4378 0.0424,-0.22596 0.0706,-0.45192 0.0424,-0.22596 0.0706,-0.40955 0.36718,-1.89242 0.63551,-3.84132 0.28245,-1.96303 0.72025,-4.0108 0.0424,-0.19771 0.0988,-0.43779 0.0565,-0.24009 0.11298,-0.48017 0.0565,-0.2542 0.0989,-0.46604 0.0424,-0.22596 0.0424,-0.36719 0,-0.24008 -0.11298,-0.31069 -0.0989,-0.0847 -0.28245,-0.21184 -0.19772,-0.15535 -0.33894,-0.26833 -0.14123,-0.1271 -0.24008,-0.24008 -0.0847,-0.1271 -0.12711,-0.26833 -0.0424,-0.14122 -0.0424,-0.33894 0,-0.31069 0.15534,-0.66376 0.16947,-0.36718 0.4378,-0.66375 0.28245,-0.3107 0.63551,-0.50841 0.36719,-0.21184 0.76262,-0.21184 0.29657,0 0.77674,0.0424 0.48016,0.0282 0.96033,0.0847 0.48016,0.0424 0.86147,0.0847 0.39543,0.0282 0.50841,0.0282 1.03095,0 2.31609,-0.0847 1.29927,-0.0847 2.58442,-0.0847 1.85005,0 3.46002,0.36719 1.60996,0.35306 2.93748,1.11567 0.29657,0.16947 0.64964,0.40956 0.35306,0.24008 0.72024,0.59314 0.36719,0.33894 0.72025,0.81911 0.36719,0.48016 0.67788,1.15804 0.36719,0.79086 0.5649,1.48287 0.21184,0.67788 0.21184,1.17216 z"
       id="text1"
       aria-label="CASAFOOD" /></g></svg>
