<?xml version="1.0" encoding="UTF-8" standalone="no"?>
<!DOCTYPE svg PUBLIC "-//W3C//DTD SVG 1.1//EN" "http://www.w3.org/Graphics/SVG/1.1/DTD/svg11.dtd">
<svg xmlns="http://www.w3.org/2000/svg" version="1.1" viewBox="0.00 0.00 300.00 133.00">
<g stroke-width="2.00" fill="none" stroke-linecap="butt">
<path stroke="#7c6623" vector-effect="non-scaling-stroke" d="
  M 180.73 57.24
  Q 180.15 59.05 180.55 60.75"
/>
<path stroke="#7c6623" vector-effect="non-scaling-stroke" d="
  M 181.68 94.23
  L 181.91 97.75"
/>
<path stroke="#7c6623" vector-effect="non-scaling-stroke" d="
  M 120.38 97.74
  Q 121.09 96.05 120.81 94.23"
/>
<path stroke="#7c6623" vector-effect="non-scaling-stroke" d="
  M 122.82 60.74
  Q 123.37 59.17 122.83 57.24"
/>
<path stroke="#8c8b8a" vector-effect="non-scaling-stroke" d="
  M 202.54 68.71
  Q 200.96 76.72 202.73 85.72
  Q 202.96 86.89 203.98 87.51
  A 2.29 2.29 0.0 0 0 207.34 86.24
  Q 210.12 77.45 207.48 68.99
  Q 206.99 67.41 206.11 66.83
  Q 204.52 65.78 203.14 67.44
  A 2.88 2.87 -19.8 0 0 202.54 68.71"
/>
<path stroke="#8c8b8a" vector-effect="non-scaling-stroke" d="
  M 221.58 67.50
  Q 222.33 67.60 222.68 66.94
  Q 222.96 66.41 222.36 66.38
  Q 220.72 66.30 219.19 66.56
  Q 218.47 66.69 219.08 67.09
  Q 219.41 67.30 219.80 67.37
  Q 220.50 67.50 220.50 68.22
  L 220.51 86.18
  Q 220.51 86.57 220.16 86.74
  Q 219.78 86.94 219.34 87.00
  Q 219.08 87.03 218.88 87.19
  Q 218.64 87.39 218.82 87.77
  A 0.27 0.26 77.9 0 0 219.04 87.92
  L 222.53 87.96
  Q 223.33 87.97 222.78 87.39
  Q 222.46 87.05 222.00 86.97
  Q 221.41 86.87 221.42 86.27
  Q 221.50 77.85 221.46 68.99
  Q 221.46 68.48 221.22 68.03
  Q 220.89 67.41 221.58 67.50"
/>
<path stroke="#8c8b8a" vector-effect="non-scaling-stroke" d="
  M 197.37 86.58
  A 2.03 2.03 0.0 0 1 194.76 85.07
  C 193.77 80.46 192.79 71.73 195.63 67.96
  Q 195.92 67.57 196.41 67.53
  Q 198.51 67.39 198.82 69.44
  A 0.33 0.33 0.0 0 0 199.45 69.51
  C 200.19 67.76 198.20 66.57 196.76 66.47
  A 1.80 1.79 -64.7 0 0 195.38 66.97
  C 192.25 70.02 192.78 78.47 193.11 82.56
  Q 193.32 85.09 194.71 87.09
  Q 195.05 87.56 195.61 87.69
  Q 199.23 88.53 200.31 84.68
  A 0.16 0.16 0.0 0 0 200.29 84.55
  L 199.93 84.03
  A 0.28 0.28 0.0 0 0 199.43 84.10
  Q 198.79 86.12 197.37 86.58"
/>
<path stroke="#8c8b8a" vector-effect="non-scaling-stroke" d="
  M 215.73 68.21
  L 216.61 69.52
  Q 216.73 69.68 216.93 69.68
  Q 217.12 69.68 217.18 69.53
  Q 217.31 69.23 217.20 68.93
  Q 216.38 66.65 214.05 66.46
  Q 213.53 66.42 213.10 66.73
  Q 210.76 68.45 210.60 71.46
  Q 210.25 78.27 210.63 83.87
  C 210.84 86.85 213.52 89.29 216.26 87.08
  Q 217.34 86.20 217.68 84.94
  A 0.57 0.56 -66.8 0 0 217.43 84.31
  L 217.04 84.08
  Q 216.70 83.87 216.66 84.27
  C 216.33 87.75 211.74 87.27 211.63 83.75
  Q 211.43 77.93 211.47 71.16
  C 211.48 69.90 212.26 68.51 213.24 67.79
  A 1.75 1.74 -35.3 0 1 215.73 68.21"
/>
<path stroke="#8c8b8a" vector-effect="non-scaling-stroke" d="
  M 226.42 69.61
  Q 226.73 70.11 226.64 70.67
  Q 226.56 71.18 226.69 71.68
  L 230.94 87.49
  A 0.47 0.47 0.0 0 0 231.51 87.82
  L 231.82 87.73
  Q 232.18 87.62 232.18 87.24
  L 232.16 67.08
  A 0.51 0.50 2.5 0 0 231.69 66.58
  L 231.40 66.56
  Q 231.13 66.53 231.13 66.81
  L 231.22 82.46
  Q 231.23 83.29 230.82 82.57
  Q 229.98 81.06 229.76 79.47
  C 229.46 77.25 228.77 75.24 228.08 73.14
  C 227.38 71.02 227.67 69.02 226.54 67.00
  A 0.62 0.60 -8.8 0 0 226.10 66.69
  Q 225.65 66.62 225.37 67.09
  A 0.91 0.90 -30.5 0 0 225.25 67.54
  L 225.27 87.34
  Q 225.27 87.92 225.85 87.84
  L 226.20 87.78
  Q 226.36 87.76 226.36 87.60
  Q 226.69 78.66 226.10 69.71
  Q 226.06 69.02 226.42 69.61"
/>
<path stroke="#8c8b8a" vector-effect="non-scaling-stroke" d="
  M 240.98 83.03
  Q 241.52 85.16 241.12 87.55
  A 0.28 0.28 0.0 0 0 241.35 87.87
  L 241.68 87.94
  Q 242.13 88.03 242.26 87.60
  C 242.82 85.77 242.11 82.49 241.85 80.59
  Q 241.52 78.26 241.48 75.88
  Q 241.42 71.46 239.58 67.19
  Q 238.98 65.78 238.50 67.23
  Q 236.84 72.31 236.55 77.37
  C 236.35 80.79 235.45 83.93 235.12 87.30
  A 0.49 0.48 -78.6 0 0 235.45 87.80
  L 235.82 87.93
  Q 236.29 88.08 236.26 87.59
  Q 236.12 85.15 237.03 82.76
  Q 237.26 82.17 237.89 82.21
  L 240.19 82.37
  Q 240.83 82.42 240.98 83.03"
/>
<path stroke="#8c8b8a" vector-effect="non-scaling-stroke" d="
  M 59.93 77.23
  Q 60.66 77.97 60.53 78.95
  Q 60.43 79.70 60.66 80.43
  L 62.74 86.98
  Q 62.82 87.26 63.10 87.17
  L 63.43 87.07
  A 0.38 0.37 74.3 0 0 63.68 86.61
  L 60.66 76.44
  A 1.02 1.00 62.5 0 1 60.99 75.37
  C 62.95 73.78 63.96 72.41 63.52 69.53
  Q 63.16 67.22 60.93 66.12
  Q 60.80 66.06 60.67 66.01
  Q 58.40 65.21 58.52 67.62
  Q 58.97 77.25 58.65 86.78
  A 0.30 0.29 -81.6 0 0 58.87 87.08
  L 59.24 87.18
  A 0.43 0.42 6.0 0 0 59.78 86.75
  L 59.36 77.48
  Q 59.33 76.62 59.93 77.23"
/>
<path stroke="#8c8b8a" vector-effect="non-scaling-stroke" d="
  M 67.25 67.22
  Q 67.22 66.70 67.75 66.70
  Q 69.01 66.71 70.31 66.75
  Q 70.52 66.76 70.66 66.60
  Q 70.78 66.47 70.73 66.26
  Q 70.62 65.78 70.13 65.78
  L 67.16 65.83
  Q 66.40 65.85 66.41 66.60
  L 66.49 86.62
  Q 66.49 87.25 67.13 87.25
  L 71.13 87.20
  A 0.38 0.38 0.0 0 0 71.22 86.45
  Q 69.76 86.08 68.08 86.29
  Q 67.41 86.37 67.42 85.69
  L 67.52 76.43
  Q 67.52 75.88 68.08 75.82
  L 69.25 75.70
  Q 69.36 75.69 69.55 75.55
  Q 69.80 75.38 69.66 75.01
  A 0.45 0.45 0.0 0 0 69.26 74.73
  L 68.01 74.70
  Q 67.57 74.69 67.55 74.25
  L 67.25 67.22"
/>
<path stroke="#8c8b8a" vector-effect="non-scaling-stroke" d="
  M 78.60 67.99
  L 78.80 68.59
  Q 79.15 69.67 79.50 68.59
  C 80.08 66.79 77.97 65.67 76.48 65.87
  C 74.21 66.19 73.46 69.53 73.25 71.33
  C 72.98 73.80 71.61 88.09 77.03 87.20
  Q 79.79 86.75 80.21 83.99
  A 0.38 0.38 0.0 0 0 79.95 83.57
  L 79.66 83.47
  Q 79.51 83.43 79.45 83.57
  Q 78.99 84.76 78.08 85.61
  A 1.89 1.88 -36.9 0 1 75.19 85.20
  Q 74.63 84.27 74.46 83.17
  C 73.78 78.83 72.97 70.43 75.56 67.39
  A 1.78 1.77 -33.8 0 1 78.60 67.99"
/>
<path stroke="#8c8b8a" vector-effect="non-scaling-stroke" d="
  M 83.27 67.48
  A 0.73 0.73 0.0 0 1 84.01 66.71
  L 86.46 66.72
  Q 86.66 66.72 86.67 66.52
  L 86.70 66.14
  Q 86.72 65.84 86.42 65.84
  L 83.19 65.83
  Q 82.40 65.83 82.40 66.62
  L 82.49 86.52
  Q 82.50 87.26 83.23 87.26
  Q 85.29 87.26 87.06 87.18
  Q 87.39 87.16 87.38 86.79
  Q 87.37 86.29 86.86 86.28
  L 83.94 86.23
  Q 83.41 86.22 83.42 85.69
  L 83.52 76.47
  A 0.70 0.69 2.0 0 1 84.26 75.79
  Q 84.84 75.83 85.40 75.57
  Q 86.12 75.24 85.41 74.87
  Q 84.82 74.56 84.16 74.72
  Q 83.56 74.85 83.54 74.25
  L 83.27 67.48"
/>
<path stroke="#8c8b8a" vector-effect="non-scaling-stroke" d="
  M 92.06 66.91
  A 0.16 0.16 0.0 0 1 92.22 66.75
  L 94.81 66.72
  A 0.16 0.16 0.0 0 0 94.97 66.56
  L 94.97 66.07
  A 0.16 0.16 0.0 0 0 94.81 65.91
  L 88.89 66.01
  A 0.16 0.16 0.0 0 0 88.73 66.20
  L 88.80 66.52
  A 0.16 0.16 0.0 0 0 88.95 66.65
  L 90.96 66.65
  A 0.16 0.16 0.0 0 1 91.12 66.81
  L 91.31 87.02
  A 0.16 0.16 0.0 0 0 91.47 87.18
  L 92.14 87.19
  A 0.16 0.16 0.0 0 0 92.30 87.03
  L 92.06 66.91"
/>
<path stroke="#8c8b8a" vector-effect="non-scaling-stroke" d="
  M 108.19 66.86
  Q 108.38 66.94 108.58 67.00
  Q 109.49 67.31 108.92 66.53
  C 108.24 65.61 106.79 65.73 106.01 66.48
  C 101.68 70.62 108.22 76.38 108.53 80.77
  C 108.70 83.17 108.76 86.64 105.17 86.12
  Q 104.76 86.06 104.65 86.46
  L 104.59 86.70
  Q 104.52 86.99 104.81 87.06
  Q 108.22 87.84 109.29 84.76
  C 111.60 78.15 104.85 74.20 105.89 68.17
  A 1.72 1.71 -74.6 0 1 108.19 66.86"
/>
<path stroke="#8c8b8a" vector-effect="non-scaling-stroke" d="
  M 100.53 83.37
  L 100.53 86.84
  Q 100.53 87.19 100.88 87.19
  L 101.20 87.18
  Q 101.59 87.18 101.60 86.79
  Q 101.80 76.62 99.23 67.05
  Q 98.64 64.83 97.65 66.90
  Q 96.71 68.87 96.60 71.27
  Q 96.48 74.28 95.88 76.97
  Q 94.85 81.63 94.44 86.75
  A 0.31 0.29 15.2 0 0 94.62 87.05
  L 94.89 87.18
  Q 95.51 87.47 95.52 86.78
  C 95.53 84.43 94.95 81.22 98.55 81.33
  Q 100.53 81.40 100.53 83.37"
/>
<path stroke="#8c8b8a" vector-effect="non-scaling-stroke" d="
  M 147.12 74.17
  C 141.47 73.78 142.29 80.11 142.78 83.70
  A 3.41 3.40 3.0 0 0 145.35 86.55
  L 145.98 86.70
  Q 148.75 87.36 148.75 84.52
  L 148.74 67.87
  A 0.36 0.35 -3.6 0 0 148.34 67.52
  L 148.02 67.56
  A 0.56 0.56 0.0 0 0 147.54 68.14
  L 147.78 73.53
  Q 147.81 74.22 147.12 74.17"
/>
<path stroke="#8c8b8a" vector-effect="non-scaling-stroke" d="
  M 152.48 80.53
  C 156.36 81.11 156.60 76.81 155.26 74.52
  Q 155.05 74.17 154.66 74.06
  C 152.41 73.48 150.79 75.19 150.73 77.31
  Q 150.66 80.01 150.68 82.67
  Q 150.72 86.54 154.09 86.71
  Q 155.12 86.76 155.79 85.84
  Q 156.19 85.29 155.52 85.19
  Q 154.93 85.09 154.42 85.38
  A 1.29 1.27 37.1 0 1 153.44 85.51
  Q 151.43 85.00 151.57 81.29
  Q 151.60 80.39 152.48 80.53"
/>
<path stroke="#8c8b8a" vector-effect="non-scaling-stroke" d="
  M 59.54 66.93
  L 59.50 74.25
  A 0.14 0.14 0.0 0 0 59.64 74.39
  L 59.70 74.39
  A 3.06 2.80 -89.7 0 0 62.52 71.35
  L 62.52 69.87
  A 3.06 2.80 -89.7 0 0 59.74 66.79
  L 59.68 66.79
  A 0.14 0.14 0.0 0 0 59.54 66.93"
/>
<path stroke="#8c8b8a" vector-effect="non-scaling-stroke" d="
  M 98.86 68.99
  Q 98.92 68.66 98.77 68.36
  Q 98.51 67.82 98.26 68.36
  Q 97.68 69.65 97.61 71.12
  C 97.49 74.03 96.84 77.08 96.24 79.87
  Q 96.06 80.73 96.94 80.68
  L 99.71 80.51
  A 0.79 0.79 0.0 0 0 100.45 79.66
  Q 100.01 74.05 98.87 69.49
  Q 98.81 69.24 98.86 68.99"
/>
<path stroke="#8c8b8a" vector-effect="non-scaling-stroke" d="
  M 206.82 69.52
  Q 206.61 68.45 205.94 67.81
  A 1.40 1.39 26.5 0 0 203.60 68.59
  Q 202.19 77.01 203.60 85.28
  Q 203.76 86.19 204.23 86.56
  Q 205.00 87.16 205.87 86.59
  A 1.38 1.36 81.7 0 0 206.44 85.81
  C 207.93 80.62 207.94 75.12 206.82 69.52"
/>
<path stroke="#8c8b8a" vector-effect="non-scaling-stroke" d="
  M 237.51 81.45
  L 240.21 81.56
  A 0.29 0.29 0.0 0 0 240.51 81.28
  L 240.52 81.06
  A 11.81 1.47 -87.6 0 0 239.55 69.20
  L 239.21 69.19
  A 11.81 1.47 -87.6 0 0 237.24 80.93
  L 237.24 81.15
  A 0.29 0.29 0.0 0 0 237.51 81.45"
/>
<path stroke="#8c8b8a" vector-effect="non-scaling-stroke" d="
  M 145.65 85.46
  Q 145.81 85.50 145.98 85.53
  Q 147.84 85.96 147.77 84.05
  L 147.48 76.25
  Q 147.44 75.41 146.60 75.37
  C 142.69 75.20 143.50 80.75 143.73 83.29
  Q 143.88 85.09 145.65 85.46"
/>
<path stroke="#8c8b8a" vector-effect="non-scaling-stroke" d="
  M 152.15 79.83
  Q 152.54 79.47 153.06 79.56
  A 1.21 1.19 -56.8 0 0 153.93 79.37
  Q 155.87 78.07 154.58 75.47
  Q 153.86 74.04 152.70 75.15
  Q 150.98 76.80 151.65 79.68
  Q 151.77 80.19 152.15 79.83"
/>
</g>
<path fill="#222220" d="
  M 180.73 57.24
  Q 180.15 59.05 180.55 60.75
  Q 180.11 61.48 180.29 62.12
  Q 180.41 62.57 180.88 62.57
  L 264.72 62.55
  A 0.53 0.53 0.0 0 1 265.16 63.37
  L 256.34 77.04
  A 0.81 0.80 -45.5 0 0 256.34 77.91
  L 265.16 91.58
  Q 265.64 92.32 264.75 92.32
  L 182.00 92.32
  Q 181.62 92.32 181.43 92.65
  Q 181.08 93.26 181.68 94.23
  L 181.91 97.75
  C 182.26 102.44 183.26 109.40 180.47 113.30
  C 178.11 116.60 173.00 115.14 172.44 110.92
  Q 171.64 104.92 171.87 98.44
  Q 172.28 86.76 173.06 74.96
  Q 173.39 69.92 172.81 65.37
  C 172.22 60.81 171.30 56.39 171.09 51.75
  Q 170.62 40.93 170.87 30.65
  C 171.02 24.14 171.72 15.67 176.83 11.46
  A 1.54 1.54 0.0 0 1 179.35 12.60
  L 180.73 57.24
  Z
  M 202.54 68.71
  Q 200.96 76.72 202.73 85.72
  Q 202.96 86.89 203.98 87.51
  A 2.29 2.29 0.0 0 0 207.34 86.24
  Q 210.12 77.45 207.48 68.99
  Q 206.99 67.41 206.11 66.83
  Q 204.52 65.78 203.14 67.44
  A 2.88 2.87 -19.8 0 0 202.54 68.71
  Z
  M 221.58 67.50
  Q 222.33 67.60 222.68 66.94
  Q 222.96 66.41 222.36 66.38
  Q 220.72 66.30 219.19 66.56
  Q 218.47 66.69 219.08 67.09
  Q 219.41 67.30 219.80 67.37
  Q 220.50 67.50 220.50 68.22
  L 220.51 86.18
  Q 220.51 86.57 220.16 86.74
  Q 219.78 86.94 219.34 87.00
  Q 219.08 87.03 218.88 87.19
  Q 218.64 87.39 218.82 87.77
  A 0.27 0.26 77.9 0 0 219.04 87.92
  L 222.53 87.96
  Q 223.33 87.97 222.78 87.39
  Q 222.46 87.05 222.00 86.97
  Q 221.41 86.87 221.42 86.27
  Q 221.50 77.85 221.46 68.99
  Q 221.46 68.48 221.22 68.03
  Q 220.89 67.41 221.58 67.50
  Z
  M 197.37 86.58
  A 2.03 2.03 0.0 0 1 194.76 85.07
  C 193.77 80.46 192.79 71.73 195.63 67.96
  Q 195.92 67.57 196.41 67.53
  Q 198.51 67.39 198.82 69.44
  A 0.33 0.33 0.0 0 0 199.45 69.51
  C 200.19 67.76 198.20 66.57 196.76 66.47
  A 1.80 1.79 -64.7 0 0 195.38 66.97
  C 192.25 70.02 192.78 78.47 193.11 82.56
  Q 193.32 85.09 194.71 87.09
  Q 195.05 87.56 195.61 87.69
  Q 199.23 88.53 200.31 84.68
  A 0.16 0.16 0.0 0 0 200.29 84.55
  L 199.93 84.03
  A 0.28 0.28 0.0 0 0 199.43 84.10
  Q 198.79 86.12 197.37 86.58
  Z
  M 215.73 68.21
  L 216.61 69.52
  Q 216.73 69.68 216.93 69.68
  Q 217.12 69.68 217.18 69.53
  Q 217.31 69.23 217.20 68.93
  Q 216.38 66.65 214.05 66.46
  Q 213.53 66.42 213.10 66.73
  Q 210.76 68.45 210.60 71.46
  Q 210.25 78.27 210.63 83.87
  C 210.84 86.85 213.52 89.29 216.26 87.08
  Q 217.34 86.20 217.68 84.94
  A 0.57 0.56 -66.8 0 0 217.43 84.31
  L 217.04 84.08
  Q 216.70 83.87 216.66 84.27
  C 216.33 87.75 211.74 87.27 211.63 83.75
  Q 211.43 77.93 211.47 71.16
  C 211.48 69.90 212.26 68.51 213.24 67.79
  A 1.75 1.74 -35.3 0 1 215.73 68.21
  Z
  M 226.42 69.61
  Q 226.73 70.11 226.64 70.67
  Q 226.56 71.18 226.69 71.68
  L 230.94 87.49
  A 0.47 0.47 0.0 0 0 231.51 87.82
  L 231.82 87.73
  Q 232.18 87.62 232.18 87.24
  L 232.16 67.08
  A 0.51 0.50 2.5 0 0 231.69 66.58
  L 231.40 66.56
  Q 231.13 66.53 231.13 66.81
  L 231.22 82.46
  Q 231.23 83.29 230.82 82.57
  Q 229.98 81.06 229.76 79.47
  C 229.46 77.25 228.77 75.24 228.08 73.14
  C 227.38 71.02 227.67 69.02 226.54 67.00
  A 0.62 0.60 -8.8 0 0 226.10 66.69
  Q 225.65 66.62 225.37 67.09
  A 0.91 0.90 -30.5 0 0 225.25 67.54
  L 225.27 87.34
  Q 225.27 87.92 225.85 87.84
  L 226.20 87.78
  Q 226.36 87.76 226.36 87.60
  Q 226.69 78.66 226.10 69.71
  Q 226.06 69.02 226.42 69.61
  Z
  M 240.98 83.03
  Q 241.52 85.16 241.12 87.55
  A 0.28 0.28 0.0 0 0 241.35 87.87
  L 241.68 87.94
  Q 242.13 88.03 242.26 87.60
  C 242.82 85.77 242.11 82.49 241.85 80.59
  Q 241.52 78.26 241.48 75.88
  Q 241.42 71.46 239.58 67.19
  Q 238.98 65.78 238.50 67.23
  Q 236.84 72.31 236.55 77.37
  C 236.35 80.79 235.45 83.93 235.12 87.30
  A 0.49 0.48 -78.6 0 0 235.45 87.80
  L 235.82 87.93
  Q 236.29 88.08 236.26 87.59
  Q 236.12 85.15 237.03 82.76
  Q 237.26 82.17 237.89 82.21
  L 240.19 82.37
  Q 240.83 82.42 240.98 83.03
  Z"
/>
<path fill="#222220" d="
  M 120.38 97.74
  Q 121.09 96.05 120.81 94.23
  Q 121.24 93.58 121.26 93.07
  A 0.73 0.73 0.0 0 0 120.53 92.32
  L 36.63 92.32
  A 0.51 0.51 0.0 0 1 36.20 91.53
  L 44.97 77.96
  Q 45.28 77.48 44.97 77.00
  L 36.25 63.50
  A 0.62 0.62 0.0 0 1 36.77 62.55
  L 122.40 62.56
  Q 122.88 62.56 123.06 62.12
  Q 123.30 61.53 122.82 60.74
  Q 123.37 59.17 122.83 57.24
  Q 123.19 53.16 122.46 51.25
  Q 121.99 50.01 120.14 47.64
  Q 118.60 45.66 118.07 43.89
  Q 117.16 40.82 117.54 37.26
  Q 118.72 26.40 119.24 14.84
  Q 119.24 14.82 119.26 14.82
  L 119.53 14.82
  Q 119.74 14.82 119.74 15.02
  L 120.07 38.98
  A 0.63 0.63 0.0 0 0 120.68 39.60
  L 120.97 39.60
  Q 121.84 39.63 121.96 38.76
  C 123.02 31.03 122.66 22.74 123.50 15.44
  Q 123.65 14.15 123.68 15.45
  Q 123.97 26.63 124.01 39.50
  A 0.44 0.44 0.0 0 0 124.50 39.94
  L 124.86 39.90
  A 0.86 0.85 87.0 0 0 125.62 39.05
  Q 125.61 27.04 125.68 15.04
  Q 125.68 14.90 125.83 14.90
  L 125.83 14.90
  Q 125.98 14.89 126.00 15.04
  Q 127.02 26.65 127.43 38.17
  Q 127.47 39.14 128.33 39.57
  Q 128.58 39.70 128.86 39.62
  A 0.97 0.95 82.2 0 0 129.54 38.71
  Q 129.69 26.75 129.62 14.81
  Q 129.61 14.65 129.78 14.64
  L 129.79 14.64
  Q 129.97 14.62 129.99 14.81
  Q 130.97 23.89 131.84 34.75
  C 132.23 39.70 132.71 44.28 128.98 48.39
  C 126.63 50.99 126.87 53.47 126.79 56.75
  Q 126.45 70.31 127.19 82.58
  Q 127.38 85.72 127.96 89.29
  C 128.65 93.52 129.06 97.94 130.00 102.20
  C 130.90 106.29 132.21 111.63 127.60 114.13
  Q 123.86 116.16 120.40 112.88
  C 118.45 111.05 118.63 108.13 119.04 105.75
  Q 119.75 101.71 120.38 97.74
  Z
  M 59.93 77.23
  Q 60.66 77.97 60.53 78.95
  Q 60.43 79.70 60.66 80.43
  L 62.74 86.98
  Q 62.82 87.26 63.10 87.17
  L 63.43 87.07
  A 0.38 0.37 74.3 0 0 63.68 86.61
  L 60.66 76.44
  A 1.02 1.00 62.5 0 1 60.99 75.37
  C 62.95 73.78 63.96 72.41 63.52 69.53
  Q 63.16 67.22 60.93 66.12
  Q 60.80 66.06 60.67 66.01
  Q 58.40 65.21 58.52 67.62
  Q 58.97 77.25 58.65 86.78
  A 0.30 0.29 -81.6 0 0 58.87 87.08
  L 59.24 87.18
  A 0.43 0.42 6.0 0 0 59.78 86.75
  L 59.36 77.48
  Q 59.33 76.62 59.93 77.23
  Z
  M 67.25 67.22
  Q 67.22 66.70 67.75 66.70
  Q 69.01 66.71 70.31 66.75
  Q 70.52 66.76 70.66 66.60
  Q 70.78 66.47 70.73 66.26
  Q 70.62 65.78 70.13 65.78
  L 67.16 65.83
  Q 66.40 65.85 66.41 66.60
  L 66.49 86.62
  Q 66.49 87.25 67.13 87.25
  L 71.13 87.20
  A 0.38 0.38 0.0 0 0 71.22 86.45
  Q 69.76 86.08 68.08 86.29
  Q 67.41 86.37 67.42 85.69
  L 67.52 76.43
  Q 67.52 75.88 68.08 75.82
  L 69.25 75.70
  Q 69.36 75.69 69.55 75.55
  Q 69.80 75.38 69.66 75.01
  A 0.45 0.45 0.0 0 0 69.26 74.73
  L 68.01 74.70
  Q 67.57 74.69 67.55 74.25
  L 67.25 67.22
  Z
  M 78.60 67.99
  L 78.80 68.59
  Q 79.15 69.67 79.50 68.59
  C 80.08 66.79 77.97 65.67 76.48 65.87
  C 74.21 66.19 73.46 69.53 73.25 71.33
  C 72.98 73.80 71.61 88.09 77.03 87.20
  Q 79.79 86.75 80.21 83.99
  A 0.38 0.38 0.0 0 0 79.95 83.57
  L 79.66 83.47
  Q 79.51 83.43 79.45 83.57
  Q 78.99 84.76 78.08 85.61
  A 1.89 1.88 -36.9 0 1 75.19 85.20
  Q 74.63 84.27 74.46 83.17
  C 73.78 78.83 72.97 70.43 75.56 67.39
  A 1.78 1.77 -33.8 0 1 78.60 67.99
  Z
  M 83.27 67.48
  A 0.73 0.73 0.0 0 1 84.01 66.71
  L 86.46 66.72
  Q 86.66 66.72 86.67 66.52
  L 86.70 66.14
  Q 86.72 65.84 86.42 65.84
  L 83.19 65.83
  Q 82.40 65.83 82.40 66.62
  L 82.49 86.52
  Q 82.50 87.26 83.23 87.26
  Q 85.29 87.26 87.06 87.18
  Q 87.39 87.16 87.38 86.79
  Q 87.37 86.29 86.86 86.28
  L 83.94 86.23
  Q 83.41 86.22 83.42 85.69
  L 83.52 76.47
  A 0.70 0.69 2.0 0 1 84.26 75.79
  Q 84.84 75.83 85.40 75.57
  Q 86.12 75.24 85.41 74.87
  Q 84.82 74.56 84.16 74.72
  Q 83.56 74.85 83.54 74.25
  L 83.27 67.48
  Z
  M 92.06 66.91
  A 0.16 0.16 0.0 0 1 92.22 66.75
  L 94.81 66.72
  A 0.16 0.16 0.0 0 0 94.97 66.56
  L 94.97 66.07
  A 0.16 0.16 0.0 0 0 94.81 65.91
  L 88.89 66.01
  A 0.16 0.16 0.0 0 0 88.73 66.20
  L 88.80 66.52
  A 0.16 0.16 0.0 0 0 88.95 66.65
  L 90.96 66.65
  A 0.16 0.16 0.0 0 1 91.12 66.81
  L 91.31 87.02
  A 0.16 0.16 0.0 0 0 91.47 87.18
  L 92.14 87.19
  A 0.16 0.16 0.0 0 0 92.30 87.03
  L 92.06 66.91
  Z
  M 108.19 66.86
  Q 108.38 66.94 108.58 67.00
  Q 109.49 67.31 108.92 66.53
  C 108.24 65.61 106.79 65.73 106.01 66.48
  C 101.68 70.62 108.22 76.38 108.53 80.77
  C 108.70 83.17 108.76 86.64 105.17 86.12
  Q 104.76 86.06 104.65 86.46
  L 104.59 86.70
  Q 104.52 86.99 104.81 87.06
  Q 108.22 87.84 109.29 84.76
  C 111.60 78.15 104.85 74.20 105.89 68.17
  A 1.72 1.71 -74.6 0 1 108.19 66.86
  Z
  M 100.53 83.37
  L 100.53 86.84
  Q 100.53 87.19 100.88 87.19
  L 101.20 87.18
  Q 101.59 87.18 101.60 86.79
  Q 101.80 76.62 99.23 67.05
  Q 98.64 64.83 97.65 66.90
  Q 96.71 68.87 96.60 71.27
  Q 96.48 74.28 95.88 76.97
  Q 94.85 81.63 94.44 86.75
  A 0.31 0.29 15.2 0 0 94.62 87.05
  L 94.89 87.18
  Q 95.51 87.47 95.52 86.78
  C 95.53 84.43 94.95 81.22 98.55 81.33
  Q 100.53 81.40 100.53 83.37
  Z"
/>
<path fill="#d6a926" d="
  M 122.83 57.24
  Q 123.37 59.17 122.82 60.74
  L 35.34 60.74
  Q 34.52 60.74 34.07 60.06
  L 32.75 58.03
  A 0.51 0.51 0.0 0 1 33.18 57.24
  L 122.83 57.24
  Z"
/>
<path fill="#d6a926" d="
  M 180.73 57.24
  L 268.32 57.24
  Q 269.15 57.24 268.68 57.92
  L 267.14 60.15
  Q 266.73 60.75 266.00 60.75
  L 180.55 60.75
  Q 180.15 59.05 180.73 57.24
  Z"
/>
<path fill="#222220" d="
  M 169.4200 78.4840
  A 19.46 18.67 0.1 0 1 149.9274 97.1200
  A 19.46 18.67 0.1 0 1 130.5000 78.4160
  A 19.46 18.67 0.1 0 1 149.9926 59.7800
  A 19.46 18.67 0.1 0 1 169.4200 78.4840
  Z
  M 147.12 74.17
  C 141.47 73.78 142.29 80.11 142.78 83.70
  A 3.41 3.40 3.0 0 0 145.35 86.55
  L 145.98 86.70
  Q 148.75 87.36 148.75 84.52
  L 148.74 67.87
  A 0.36 0.35 -3.6 0 0 148.34 67.52
  L 148.02 67.56
  A 0.56 0.56 0.0 0 0 147.54 68.14
  L 147.78 73.53
  Q 147.81 74.22 147.12 74.17
  Z
  M 152.48 80.53
  C 156.36 81.11 156.60 76.81 155.26 74.52
  Q 155.05 74.17 154.66 74.06
  C 152.41 73.48 150.79 75.19 150.73 77.31
  Q 150.66 80.01 150.68 82.67
  Q 150.72 86.54 154.09 86.71
  Q 155.12 86.76 155.79 85.84
  Q 156.19 85.29 155.52 85.19
  Q 154.93 85.09 154.42 85.38
  A 1.29 1.27 37.1 0 1 153.44 85.51
  Q 151.43 85.00 151.57 81.29
  Q 151.60 80.39 152.48 80.53
  Z"
/>
<path fill="#d6a926" d="
  M 23.56 77.29
  L 16.11 65.67
  A 0.36 0.36 0.0 0 1 16.41 65.12
  L 34.33 65.13
  A 0.36 0.36 0.0 0 1 34.64 65.30
  L 42.33 77.29
  A 0.36 0.36 0.0 0 1 42.33 77.67
  L 34.66 89.61
  A 0.36 0.36 0.0 0 1 34.35 89.77
  L 16.41 89.80
  A 0.36 0.36 0.0 0 1 16.11 89.24
  L 23.55 77.67
  A 0.36 0.36 0.0 0 0 23.56 77.29
  Z"
/>
<path fill="#d6a926" d="
  M 277.80 77.71
  L 285.15 89.10
  A 0.44 0.44 0.0 0 1 284.78 89.78
  L 267.03 89.78
  A 0.44 0.44 0.0 0 1 266.66 89.58
  L 259.01 77.71
  A 0.44 0.44 0.0 0 1 259.01 77.23
  L 266.70 65.32
  A 0.44 0.44 0.0 0 1 267.07 65.12
  L 284.81 65.14
  A 0.44 0.44 0.0 0 1 285.18 65.82
  L 277.80 77.23
  A 0.44 0.44 0.0 0 0 277.80 77.71
  Z"
/>
<path fill="#f6f3f4" d="
  M 59.36 77.48
  L 59.78 86.75
  A 0.43 0.42 6.0 0 1 59.24 87.18
  L 58.87 87.08
  A 0.30 0.29 -81.6 0 1 58.65 86.78
  Q 58.97 77.25 58.52 67.62
  Q 58.40 65.21 60.67 66.01
  Q 60.80 66.06 60.93 66.12
  Q 63.16 67.22 63.52 69.53
  C 63.96 72.41 62.95 73.78 60.99 75.37
  A 1.02 1.00 62.5 0 0 60.66 76.44
  L 63.68 86.61
  A 0.38 0.37 74.3 0 1 63.43 87.07
  L 63.10 87.17
  Q 62.82 87.26 62.74 86.98
  L 60.66 80.43
  Q 60.43 79.70 60.53 78.95
  Q 60.66 77.97 59.93 77.23
  Q 59.33 76.62 59.36 77.48
  Z
  M 59.54 66.93
  L 59.50 74.25
  A 0.14 0.14 0.0 0 0 59.64 74.39
  L 59.70 74.39
  A 3.06 2.80 -89.7 0 0 62.52 71.35
  L 62.52 69.87
  A 3.06 2.80 -89.7 0 0 59.74 66.79
  L 59.68 66.79
  A 0.14 0.14 0.0 0 0 59.54 66.93
  Z"
/>
<path fill="#f6f3f4" d="
  M 68.01 74.70
  L 69.26 74.73
  A 0.45 0.45 0.0 0 1 69.66 75.01
  Q 69.80 75.38 69.55 75.55
  Q 69.36 75.69 69.25 75.70
  L 68.08 75.82
  Q 67.52 75.88 67.52 76.43
  L 67.42 85.69
  Q 67.41 86.37 68.08 86.29
  Q 69.76 86.08 71.22 86.45
  A 0.38 0.38 0.0 0 1 71.13 87.20
  L 67.13 87.25
  Q 66.49 87.25 66.49 86.62
  L 66.41 66.60
  Q 66.40 65.85 67.16 65.83
  L 70.13 65.78
  Q 70.62 65.78 70.73 66.26
  Q 70.78 66.47 70.66 66.60
  Q 70.52 66.76 70.31 66.75
  Q 69.01 66.71 67.75 66.70
  Q 67.22 66.70 67.25 67.22
  L 67.55 74.25
  Q 67.57 74.69 68.01 74.70
  Z"
/>
<path fill="#f6f3f4" d="
  M 78.60 67.99
  A 1.78 1.77 -33.8 0 0 75.56 67.39
  C 72.97 70.43 73.78 78.83 74.46 83.17
  Q 74.63 84.27 75.19 85.20
  A 1.89 1.88 -36.9 0 0 78.08 85.61
  Q 78.99 84.76 79.45 83.57
  Q 79.51 83.43 79.66 83.47
  L 79.95 83.57
  A 0.38 0.38 0.0 0 1 80.21 83.99
  Q 79.79 86.75 77.03 87.20
  C 71.61 88.09 72.98 73.80 73.25 71.33
  C 73.46 69.53 74.21 66.19 76.48 65.87
  C 77.97 65.67 80.08 66.79 79.50 68.59
  Q 79.15 69.67 78.80 68.59
  L 78.60 67.99
  Z"
/>
<path fill="#f6f3f4" d="
  M 84.16 74.72
  Q 84.82 74.56 85.41 74.87
  Q 86.12 75.24 85.40 75.57
  Q 84.84 75.83 84.26 75.79
  A 0.70 0.69 2.0 0 0 83.52 76.47
  L 83.42 85.69
  Q 83.41 86.22 83.94 86.23
  L 86.86 86.28
  Q 87.37 86.29 87.38 86.79
  Q 87.39 87.16 87.06 87.18
  Q 85.29 87.26 83.23 87.26
  Q 82.50 87.26 82.49 86.52
  L 82.40 66.62
  Q 82.40 65.83 83.19 65.83
  L 86.42 65.84
  Q 86.72 65.84 86.70 66.14
  L 86.67 66.52
  Q 86.66 66.72 86.46 66.72
  L 84.01 66.71
  A 0.73 0.73 0.0 0 0 83.27 67.48
  L 83.54 74.25
  Q 83.56 74.85 84.16 74.72
  Z"
/>
<path fill="#f6f3f4" d="
  M 92.06 66.91
  L 92.30 87.03
  A 0.16 0.16 0.0 0 1 92.14 87.19
  L 91.47 87.18
  A 0.16 0.16 0.0 0 1 91.31 87.02
  L 91.12 66.81
  A 0.16 0.16 0.0 0 0 90.96 66.65
  L 88.95 66.65
  A 0.16 0.16 0.0 0 1 88.80 66.52
  L 88.73 66.20
  A 0.16 0.16 0.0 0 1 88.89 66.01
  L 94.81 65.91
  A 0.16 0.16 0.0 0 1 94.97 66.07
  L 94.97 66.56
  A 0.16 0.16 0.0 0 1 94.81 66.72
  L 92.22 66.75
  A 0.16 0.16 0.0 0 0 92.06 66.91
  Z"
/>
<path fill="#f6f3f4" d="
  M 108.19 66.86
  A 1.72 1.71 -74.6 0 0 105.89 68.17
  C 104.85 74.20 111.60 78.15 109.29 84.76
  Q 108.22 87.84 104.81 87.06
  Q 104.52 86.99 104.59 86.70
  L 104.65 86.46
  Q 104.76 86.06 105.17 86.12
  C 108.76 86.64 108.70 83.17 108.53 80.77
  C 108.22 76.38 101.68 70.62 106.01 66.48
  C 106.79 65.73 108.24 65.61 108.92 66.53
  Q 109.49 67.31 108.58 67.00
  Q 108.38 66.94 108.19 66.86
  Z"
/>
<path fill="#f6f3f4" d="
  M 100.53 83.37
  Q 100.53 81.40 98.55 81.33
  C 94.95 81.22 95.53 84.43 95.52 86.78
  Q 95.51 87.47 94.89 87.18
  L 94.62 87.05
  A 0.31 0.29 15.2 0 1 94.44 86.75
  Q 94.85 81.63 95.88 76.97
  Q 96.48 74.28 96.60 71.27
  Q 96.71 68.87 97.65 66.90
  Q 98.64 64.83 99.23 67.05
  Q 101.80 76.62 101.60 86.79
  Q 101.59 87.18 101.20 87.18
  L 100.88 87.19
  Q 100.53 87.19 100.53 86.84
  L 100.53 83.37
  Z
  M 98.86 68.99
  Q 98.92 68.66 98.77 68.36
  Q 98.51 67.82 98.26 68.36
  Q 97.68 69.65 97.61 71.12
  C 97.49 74.03 96.84 77.08 96.24 79.87
  Q 96.06 80.73 96.94 80.68
  L 99.71 80.51
  A 0.79 0.79 0.0 0 0 100.45 79.66
  Q 100.01 74.05 98.87 69.49
  Q 98.81 69.24 98.86 68.99
  Z"
/>
<path fill="#f6f3f4" d="
  M 202.54 68.71
  A 2.88 2.87 -19.8 0 1 203.14 67.44
  Q 204.52 65.78 206.11 66.83
  Q 206.99 67.41 207.48 68.99
  Q 210.12 77.45 207.34 86.24
  A 2.29 2.29 0.0 0 1 203.98 87.51
  Q 202.96 86.89 202.73 85.72
  Q 200.96 76.72 202.54 68.71
  Z
  M 206.82 69.52
  Q 206.61 68.45 205.94 67.81
  A 1.40 1.39 26.5 0 0 203.60 68.59
  Q 202.19 77.01 203.60 85.28
  Q 203.76 86.19 204.23 86.56
  Q 205.00 87.16 205.87 86.59
  A 1.38 1.36 81.7 0 0 206.44 85.81
  C 207.93 80.62 207.94 75.12 206.82 69.52
  Z"
/>
<path fill="#f6f3f4" d="
  M 221.22 68.03
  Q 221.46 68.48 221.46 68.99
  Q 221.50 77.85 221.42 86.27
  Q 221.41 86.87 222.00 86.97
  Q 222.46 87.05 222.78 87.39
  Q 223.33 87.97 222.53 87.96
  L 219.04 87.92
  A 0.27 0.26 77.9 0 1 218.82 87.77
  Q 218.64 87.39 218.88 87.19
  Q 219.08 87.03 219.34 87.00
  Q 219.78 86.94 220.16 86.74
  Q 220.51 86.57 220.51 86.18
  L 220.50 68.22
  Q 220.50 67.50 219.80 67.37
  Q 219.41 67.30 219.08 67.09
  Q 218.47 66.69 219.19 66.56
  Q 220.72 66.30 222.36 66.38
  Q 222.96 66.41 222.68 66.94
  Q 222.33 67.60 221.58 67.50
  Q 220.89 67.41 221.22 68.03
  Z"
/>
<path fill="#f6f3f4" d="
  M 197.37 86.58
  Q 198.79 86.12 199.43 84.10
  A 0.28 0.28 0.0 0 1 199.93 84.03
  L 200.29 84.55
  A 0.16 0.16 0.0 0 1 200.31 84.68
  Q 199.23 88.53 195.61 87.69
  Q 195.05 87.56 194.71 87.09
  Q 193.32 85.09 193.11 82.56
  C 192.78 78.47 192.25 70.02 195.38 66.97
  A 1.80 1.79 -64.7 0 1 196.76 66.47
  C 198.20 66.57 200.19 67.76 199.45 69.51
  A 0.33 0.33 0.0 0 1 198.82 69.44
  Q 198.51 67.39 196.41 67.53
  Q 195.92 67.57 195.63 67.96
  C 192.79 71.73 193.77 80.46 194.76 85.07
  A 2.03 2.03 0.0 0 0 197.37 86.58
  Z"
/>
<path fill="#f6f3f4" d="
  M 215.73 68.21
  A 1.75 1.74 -35.3 0 0 213.24 67.79
  C 212.26 68.51 211.48 69.90 211.47 71.16
  Q 211.43 77.93 211.63 83.75
  C 211.74 87.27 216.33 87.75 216.66 84.27
  Q 216.70 83.87 217.04 84.08
  L 217.43 84.31
  A 0.57 0.56 -66.8 0 1 217.68 84.94
  Q 217.34 86.20 216.26 87.08
  C 213.52 89.29 210.84 86.85 210.63 83.87
  Q 210.25 78.27 210.60 71.46
  Q 210.76 68.45 213.10 66.73
  Q 213.53 66.42 214.05 66.46
  Q 216.38 66.65 217.20 68.93
  Q 217.31 69.23 217.18 69.53
  Q 217.12 69.68 216.93 69.68
  Q 216.73 69.68 216.61 69.52
  L 215.73 68.21
  Z"
/>
<path fill="#f6f3f4" d="
  M 226.10 69.71
  Q 226.69 78.66 226.36 87.60
  Q 226.36 87.76 226.20 87.78
  L 225.85 87.84
  Q 225.27 87.92 225.27 87.34
  L 225.25 67.54
  A 0.91 0.90 -30.5 0 1 225.37 67.09
  Q 225.65 66.62 226.10 66.69
  A 0.62 0.60 -8.8 0 1 226.54 67.00
  C 227.67 69.02 227.38 71.02 228.08 73.14
  C 228.77 75.24 229.46 77.25 229.76 79.47
  Q 229.98 81.06 230.82 82.57
  Q 231.23 83.29 231.22 82.46
  L 231.13 66.81
  Q 231.13 66.53 231.40 66.56
  L 231.69 66.58
  A 0.51 0.50 2.5 0 1 232.16 67.08
  L 232.18 87.24
  Q 232.18 87.62 231.82 87.73
  L 231.51 87.82
  A 0.47 0.47 0.0 0 1 230.94 87.49
  L 226.69 71.68
  Q 226.56 71.18 226.64 70.67
  Q 226.73 70.11 226.42 69.61
  Q 226.06 69.02 226.10 69.71
  Z"
/>
<path fill="#f6f3f4" d="
  M 240.19 82.37
  L 237.89 82.21
  Q 237.26 82.17 237.03 82.76
  Q 236.12 85.15 236.26 87.59
  Q 236.29 88.08 235.82 87.93
  L 235.45 87.80
  A 0.49 0.48 -78.6 0 1 235.12 87.30
  C 235.45 83.93 236.35 80.79 236.55 77.37
  Q 236.84 72.31 238.50 67.23
  Q 238.98 65.78 239.58 67.19
  Q 241.42 71.46 241.48 75.88
  Q 241.52 78.26 241.85 80.59
  C 242.11 82.49 242.82 85.77 242.26 87.60
  Q 242.13 88.03 241.68 87.94
  L 241.35 87.87
  A 0.28 0.28 0.0 0 1 241.12 87.55
  Q 241.52 85.16 240.98 83.03
  Q 240.83 82.42 240.19 82.37
  Z
  M 237.51 81.45
  L 240.21 81.56
  A 0.29 0.29 0.0 0 0 240.51 81.28
  L 240.52 81.06
  A 11.81 1.47 -87.6 0 0 239.55 69.20
  L 239.21 69.19
  A 11.81 1.47 -87.6 0 0 237.24 80.93
  L 237.24 81.15
  A 0.29 0.29 0.0 0 0 237.51 81.45
  Z"
/>
<path fill="#222220" d="
  M 59.54 66.93
  A 0.14 0.14 0.0 0 1 59.68 66.79
  L 59.74 66.79
  A 3.06 2.80 -89.7 0 1 62.52 69.87
  L 62.52 71.35
  A 3.06 2.80 -89.7 0 1 59.70 74.39
  L 59.64 74.39
  A 0.14 0.14 0.0 0 1 59.50 74.25
  L 59.54 66.93
  Z"
/>
<path fill="#f6f3f4" d="
  M 147.78 73.53
  L 147.54 68.14
  A 0.56 0.56 0.0 0 1 148.02 67.56
  L 148.34 67.52
  A 0.36 0.35 -3.6 0 1 148.74 67.87
  L 148.75 84.52
  Q 148.75 87.36 145.98 86.70
  L 145.35 86.55
  A 3.41 3.40 3.0 0 1 142.78 83.70
  C 142.29 80.11 141.47 73.78 147.12 74.17
  Q 147.81 74.22 147.78 73.53
  Z
  M 145.65 85.46
  Q 145.81 85.50 145.98 85.53
  Q 147.84 85.96 147.77 84.05
  L 147.48 76.25
  Q 147.44 75.41 146.60 75.37
  C 142.69 75.20 143.50 80.75 143.73 83.29
  Q 143.88 85.09 145.65 85.46
  Z"
/>
<path fill="#222220" d="
  M 206.82 69.52
  C 207.94 75.12 207.93 80.62 206.44 85.81
  A 1.38 1.36 81.7 0 1 205.87 86.59
  Q 205.00 87.16 204.23 86.56
  Q 203.76 86.19 203.60 85.28
  Q 202.19 77.01 203.60 68.59
  A 1.40 1.39 26.5 0 1 205.94 67.81
  Q 206.61 68.45 206.82 69.52
  Z"
/>
<path fill="#222220" d="
  M 98.87 69.49
  Q 100.01 74.05 100.45 79.66
  A 0.79 0.79 0.0 0 1 99.71 80.51
  L 96.94 80.68
  Q 96.06 80.73 96.24 79.87
  C 96.84 77.08 97.49 74.03 97.61 71.12
  Q 97.68 69.65 98.26 68.36
  Q 98.51 67.82 98.77 68.36
  Q 98.92 68.66 98.86 68.99
  Q 98.81 69.24 98.87 69.49
  Z"
/>
<path fill="#222220" d="
  M 237.51 81.45
  A 0.29 0.29 0.0 0 1 237.24 81.15
  L 237.24 80.93
  A 11.81 1.47 -87.6 0 1 239.21 69.19
  L 239.55 69.20
  A 11.81 1.47 -87.6 0 1 240.52 81.06
  L 240.51 81.28
  A 0.29 0.29 0.0 0 1 240.21 81.56
  L 237.51 81.45
  Z"
/>
<path fill="#f6f3f4" d="
  M 152.48 80.53
  Q 151.60 80.39 151.57 81.29
  Q 151.43 85.00 153.44 85.51
  A 1.29 1.27 37.1 0 0 154.42 85.38
  Q 154.93 85.09 155.52 85.19
  Q 156.19 85.29 155.79 85.84
  Q 155.12 86.76 154.09 86.71
  Q 150.72 86.54 150.68 82.67
  Q 150.66 80.01 150.73 77.31
  C 150.79 75.19 152.41 73.48 154.66 74.06
  Q 155.05 74.17 155.26 74.52
  C 156.60 76.81 156.36 81.11 152.48 80.53
  Z
  M 152.15 79.83
  Q 152.54 79.47 153.06 79.56
  A 1.21 1.19 -56.8 0 0 153.93 79.37
  Q 155.87 78.07 154.58 75.47
  Q 153.86 74.04 152.70 75.15
  Q 150.98 76.80 151.65 79.68
  Q 151.77 80.19 152.15 79.83
  Z"
/>
<path fill="#222220" d="
  M 152.15 79.83
  Q 151.77 80.19 151.65 79.68
  Q 150.98 76.80 152.70 75.15
  Q 153.86 74.04 154.58 75.47
  Q 155.87 78.07 153.93 79.37
  A 1.21 1.19 -56.8 0 1 153.06 79.56
  Q 152.54 79.47 152.15 79.83
  Z"
/>
<path fill="#222220" d="
  M 143.73 83.29
  C 143.50 80.75 142.69 75.20 146.60 75.37
  Q 147.44 75.41 147.48 76.25
  L 147.77 84.05
  Q 147.84 85.96 145.98 85.53
  Q 145.81 85.50 145.65 85.46
  Q 143.88 85.09 143.73 83.29
  Z"
/>
<path fill="#d6a926" d="
  M 120.81 94.23
  Q 121.09 96.05 120.38 97.74
  L 33.15 97.75
  Q 32.20 97.75 32.72 96.96
  L 34.03 94.96
  Q 34.52 94.23 35.39 94.23
  L 120.81 94.23
  Z"
/>
<path fill="#d6a926" d="
  M 181.68 94.23
  L 266.14 94.23
  Q 266.77 94.23 267.12 94.75
  L 268.79 97.20
  A 0.35 0.35 0.0 0 1 268.50 97.74
  L 181.91 97.75
  L 181.68 94.23
  Z"
/>
</svg>
